<svg xmlns="http://www.w3.org/2000/svg" width="900" height="700" fill="none" viewBox="0 0 900 700">
  <path fill="#ead2ef" d="M536.558 198.066c.933-5.499-8.586-10.006-15.743-10.47-3.408-.233-6.948.201-10.185-.728-7.005-1.983-9.803-9.293-16.637-11.694-5.102-1.75-10.984-.186-15.953 1.843-4.968 2.029-9.842 4.646-15.381 4.863-4.797.248-10.032-1.192-14.239.713-3.141 1.425-4.779 4.368-7.615 6.102-3.01 1.513-6.495 2.282-10.032 2.215a34.147 34.147 0 0 0-10.356 1.379c-3.198 1.192-5.844 3.934-5.178 6.753l121.319-.976ZM226.286 51.932c.97-5.746-9.005-10.47-16.486-10.965-3.56-.233-7.272.216-10.66-.744-7.329-2.075-10.242-9.773-17.399-12.236-5.35-1.827-11.422-.201-16.676 1.92-5.254 2.123-10.299 4.802-16.086 5.096-5.045.264-10.508-1.254-14.905.744-3.294 1.549-5.007 4.569-8.034 6.381-3.147 1.583-6.79 2.39-10.489 2.323-3.69-.08-7.365.408-10.832 1.44-3.331 1.24-6.11 4.12-5.406 7.064l126.973-1.023Z"/>
  <path fill="#ead2ef" d="M811.423 250.169c.724-4.305-6.757-7.868-12.373-8.224-2.684-.186-5.483.155-8.014-.573-5.502-1.549-7.615-7.342-13.078-9.185-4.017-1.378-8.643-.155-12.526 1.441-3.884 1.595-7.748 3.593-12.107 3.825-3.808.202-7.881-.944-11.194.558-2.474 1.131-3.807 3.438-6.034 4.801-2.367 1.184-5.104 1.786-7.881 1.735a27.144 27.144 0 0 0-8.129 1.084c-1.29.412-2.383 1.152-3.117 2.108-.733.957-1.069 2.081-.957 3.205l95.41-.775Zm-697.852-52.816c.514-3.097-4.911-5.699-8.985-5.963a28.754 28.754 0 0 1-5.71-.418c-3.999-1.131-5.579-5.328-9.52-6.66-2.912-.991-6.262-.108-9.08 1.053-2.817 1.162-5.71 2.602-8.775 2.773-2.741.139-5.711-.682-8.11.402-1.79.806-2.74 2.494-4.378 3.485-1.718.852-3.7 1.288-5.71 1.255a19.464 19.464 0 0 0-5.883.79c-.938.293-1.733.826-2.265 1.519s-.773 1.508-.686 2.322l69.102-.558Zm345.3 206.478c.723-4.321-6.758-7.868-12.393-8.24a38.917 38.917 0 0 1-7.9-.558c-5.52-1.548-7.614-7.357-13.078-9.2-4.016-1.378-8.642-.139-12.545 1.456-3.902 1.596-7.728 3.594-12.088 3.826-3.807.186-7.881-.945-11.193.557-2.475 1.116-3.807 3.423-6.035 4.786-2.368 1.196-5.113 1.804-7.9 1.751a26.689 26.689 0 0 0-8.128 1.084c-1.291.405-2.384 1.141-3.116 2.097-.731.955-1.061 2.079-.939 3.2l95.315-.759ZM602.766 77.705c.743-4.32-6.739-7.868-12.373-8.24a39.208 39.208 0 0 1-8.015-.557c-5.501-1.549-7.614-7.342-13.078-9.2-4.016-1.363-8.623-.14-12.525 1.456-3.903 1.595-7.748 3.593-12.089 3.825-3.807.186-7.9-.945-11.212.558-2.456 1.115-3.807 3.438-6.034 4.801-2.366 1.186-5.104 1.789-7.881 1.735a26.63 26.63 0 0 0-8.129 1.084c-1.289.41-2.381 1.146-3.115 2.1-.734.954-1.07 2.075-.959 3.197l95.41-.759ZM830.08 49.408c.913-5.359-8.376-9.758-15.344-10.207-3.331-.217-6.777.186-9.937-.697-6.815-1.936-9.518-9.122-16.199-11.4-4.988-1.718-10.718-.185-15.553 1.782-4.835 1.967-9.518 4.476-14.982 4.755-4.702.232-9.784-1.177-13.896.681-3.065 1.394-4.664 4.26-7.482 5.963-2.941 1.465-6.337 2.212-9.784 2.153a33.408 33.408 0 0 0-10.07 1.332c-3.122 1.162-5.711 3.841-5.045 6.583l118.292-.945Z"/>
  <path fill="#ead2ef" d="M722.086 442.737H380.08v8.519h342.006v-8.519Z"/>
  <path fill="#ead2ef" d="M391.064 445.029H380.08v254.073h10.984V445.029Zm73.652 0h-7.748v254.073h7.748V445.029Zm-50.695 0h-7.748v254.073h7.748V445.029Zm93.564 0h-3.884v254.073h3.884V445.029Zm58.575-10.639h-3.883v264.697h3.883V434.39Zm-11.193 10.639h-12.736v254.073h12.736V445.029Zm125.925-14.527h-3.884v268.601h3.884V430.502ZM593.8 445.029h-3.883v254.073h3.883V445.029Zm120.405 0h-17.646v254.073h17.646V445.029Z"/>
  <path fill="#ead2ef" d="M857.606 490.581H385.581v7.667h472.025v-7.667Zm0 134.501H385.581v11.756h472.025v-11.756Zm0-67.575H385.581v5.885h472.025v-5.885Z"/>
  <path fill="#ead2ef" d="M861.375 490.581H846.47v208.506h14.905V490.581Zm-237.897 80.107h-45.249v128.399h45.249V570.688Zm120.671-8.178c.21.883 77.821 63.502 77.821 63.502h10.66v-6.505h-9.518v-5.808h-7.786v-5.978h-5.825v-5.143h-6.491v-6.334h-7.139v-5.452h-8.433v-6.335h-6.472v-4.105h-6.282v-5.653h-6.473v-6.675h-7.367v-4.631h-15.781m91.07-67.825c-.209.883-77.82 63.502-77.82 63.502h-10.604v-6.505h9.519v-5.746h7.785v-6.04h5.826v-5.112h6.586v-6.319h7.139v-5.452h8.433v-6.335h6.472v-4.119h6.282v-5.731h6.473v-6.691h7.367v-4.569h15.705m.837 138.498c-.209.883-77.82 63.503-77.82 63.503h-10.604v-6.521h9.519v-5.715h7.785v-5.979h5.826v-5.111h6.586v-6.412h7.139v-5.452h8.433v-6.319h6.472v-4.12h6.282v-5.731h6.473v-6.691h7.367v-4.569h15.705m-444.918-92.807h311.72c.324-.032.622-.159.838-.357a.978.978 0 0 0 .336-.719.979.979 0 0 0-.336-.72 1.453 1.453 0 0 0-.838-.357h-311.72a1.46 1.46 0 0 0-.838.357.978.978 0 0 0-.335.72c0 .265.119.521.335.719.217.198.515.325.838.357Zm37.16 83.513c7.845 12.094 20.829 21.452 36.53 26.33 16.684 5.189 35.133 5.189 51.817 0 9.209-2.784 17.599-7.105 24.633-12.685.253-.205.394-.484.394-.774 0-.291-.141-.569-.394-.774a1.513 1.513 0 0 0-.952-.321 1.51 1.51 0 0 0-.951.321c-24.614 19.685-65.295 21.126-92.041 3.484-6.982-4.564-12.703-10.274-16.79-16.758-.781-1.224-3.046-.139-2.285 1.084l.039.093Z"/>
  <path fill="#ead2ef" d="M648.644 563.856c13.84 7.032 28.288 14.327 44.659 16.495 13.931 1.766 28.192-.031 40.814-5.142 7.31-2.941 13.892-6.953 19.417-11.833 1.143-1.007-.723-2.54-1.903-1.549-9.361 8.187-21.647 13.773-35.122 15.969-14.944 2.447-29.659.124-43.308-5.111a250.192 250.192 0 0 1-23.148-10.749c-1.447-.728-2.76 1.115-1.333 1.843l-.076.077Z"/>
  <path fill="#ead2ef" d="M720.031 495.569v132.674c0 .283.138.555.384.755.247.201.581.313.929.313.349 0 .683-.112.929-.313.246-.2.385-.472.385-.755V495.569c0-.284-.139-.556-.385-.756-.246-.2-.58-.313-.929-.313-.348 0-.682.113-.929.313a.979.979 0 0 0-.384.756ZM531.552 424.46v132.659c0 .283.138.555.384.756.247.2.581.313.929.313.349 0 .683-.113.929-.313.246-.201.385-.473.385-.756V424.46c0-.283-.139-.555-.385-.755a1.475 1.475 0 0 0-.929-.313 1.48 1.48 0 0 0-.929.313.978.978 0 0 0-.384.755Zm136.586 111.053h-44.64v21.823h44.64v-21.823Z"/>
  <path fill="#ead2ef" d="m488.473 557.909-14.03-15.566-11.536 15.55-14.258-15.581-13.345 15.566-.228-.248-13.573-15.318-15.229 15.535-.209-.202-15.191-14.466.399-.279 14.982 14.265 15.267-15.566 13.782 15.535 13.326-15.55 14.239 15.535 11.536-15.551.228.248 13.783 15.303 10.603-15.535 17.209 15.566 12.221-15.582 13.763 15.551 10.223-13.63.457.217-10.642 14.187-.228-.263-13.535-15.303-12.202 15.535-.228-.217-16.943-15.333-10.641 15.597Z"/>
  <path fill="#ead2ef" d="m531.247 559.349-15.99-16.402-13.345 15.628-.209-.186-16.276-13.986-9.937 14.218-.228-.263-14.392-15.38-11.117 14.915-.248-.247-13.858-14.683-13.23 15.627-15.667-15.658-15.477 14.714-.399-.279 15.876-15.117 15.629 15.628 13.23-15.643 14.087 14.899 11.136-14.93.229.263 14.372 15.38 9.899-14.156 16.523 14.202 13.364-15.658 15.99 16.386 13.459-16.154.438.248-13.859 16.634Zm170.851 90.949H387.713v48.789h314.385v-48.789Zm-196.455-75.212H385.581v50.926h120.062v-50.926Z"/>
  <path fill="#ead2ef" d="M102.91 411.62H88.271v288.302h14.639V411.62Z"/>
  <path fill="##ead2ef" d="M261.216 406.944H88.271v9.355h172.945v-9.355Zm11.727 75.52H99.998v9.355h172.945v-9.355Zm0 19.671H99.998v9.355h172.945v-9.355ZM99.998 522.038V700h172.964V522.038H99.998Zm56.214 100.241h-27.336V586.47h27.336v35.809Zm0-48.107h-27.336v-35.809h27.336v35.809Zm41.556 48.975h-27.317v-35.81h27.317v35.81Zm0-48.975h-27.317v-35.809h27.317v35.809Z"/>
  <path fill="#ead2ef" d="M337.629 406.944h-85.13v292.979h85.13V406.944Z"/>
  <path fill="#ead2ef" d="M266.299 347.313h-10.165v81.346h10.165v-81.346Zm64.667 0H320.8v81.346h10.166v-81.346Z"/>
  <path fill="#ead2ef" d="M330.395 347.297h-74.261v6.846h74.261v-6.846ZM146.561 489.589h-9.747v32.696h9.747v-32.696Zm54.158 0h-9.746v32.696h9.746v-32.696Zm-98.856-16.958h169.329c.348 0 .682-.113.928-.313.247-.201.385-.473.385-.756 0-.284-.138-.555-.385-.756a1.48 1.48 0 0 0-.928-.313H101.863a1.48 1.48 0 0 0-.928.313c-.247.201-.385.472-.385.756 0 .283.138.555.385.756.246.2.58.313.928.313Z"/>
  <path fill="#ead2ef" d="M106.851 415.725v67.142c0 .284.138.556.385.756.246.2.58.313.929.313.348 0 .682-.113.928-.313a.977.977 0 0 0 .385-.756v-67.142c0-.284-.138-.555-.385-.756a1.48 1.48 0 0 0-.928-.313c-.349 0-.683.113-.929.313-.247.201-.385.472-.385.756Zm45.04 105.601c28.555-20.011 43.536-50.756 49.495-80.385a156.865 156.865 0 0 0 2.969-28.406c0-.283-.138-.555-.385-.756a1.48 1.48 0 0 0-.928-.313c-.349 0-.683.113-.929.313-.246.201-.385.473-.385.756-.438 31.411-9.88 64.153-32.514 90.065-5.469 6.34-11.861 12.118-19.036 17.208-1.295.898.59 2.401 1.903 1.549l-.19-.031Z"/>
  <path fill="#ead2ef" d="M208.601 414.47c-3.192 30.07-11.832 59.591-25.642 87.603a261.652 261.652 0 0 1-11.974 21.932c-.762 1.239 1.504 2.323 2.265 1.084 16.268-26.841 27.705-55.447 33.961-84.939 1.904-8.503 3.198-17.037 4.036-25.68.133-1.363-2.513-1.363-2.646 0ZM63.182 504.427h-8.89v195.495h8.89V504.427Z"/>
  <path fill="#ead2ef" d="M92.402 504.427H58.746v7.063h33.656v-7.063Zm1.714 69.668H60.022v13.258h34.094v-13.258Zm-1.714 115.063H58.746v10.764h33.656v-10.764Z"/>
  <path fill="#ead2ef" d="M68.455 507.974v184.08c0 .284.139.555.385.756.246.2.58.313.929.313.348 0 .682-.113.928-.313.247-.201.385-.472.385-.756v-184.08c0-.283-.138-.555-.385-.756a1.48 1.48 0 0 0-.928-.313c-.349 0-.683.113-.93.313-.245.201-.384.473-.384.756Zm5.805 0v184.08c0 .284.14.555.385.756.247.2.58.313.93.313.348 0 .682-.113.928-.313.246-.201.385-.472.385-.756v-184.08c0-.283-.139-.555-.385-.756-.246-.2-.58-.313-.929-.313a1.48 1.48 0 0 0-.928.313c-.247.201-.385.473-.385.756Z"/>
  <path fill="#E0E0E0" d="M179.17 698.729h-9.175V338.127h9.175v360.602Zm-8.585-.526h7.995V338.654h-7.995v359.549Z"/>
  <path fill="#E0E0E0" d="M178.884 460.395h-8.585v2.075h8.585v-2.075Zm0 3.344h-8.585v2.076h8.585v-2.076Zm0 4.12h-8.585v.527h8.585v-.527Zm0 3.346h-8.585v.526h8.585v-.526Zm0 3.346h-8.585v.526h8.585v-.526Zm0 3.345h-8.585v.526h8.585v-.526Zm0 3.346h-8.585v.526h8.585v-.526Zm0 2.556h-8.585v2.075h8.585v-2.075Zm0 4.135h-8.585v.526h8.585v-.526Zm0 2.556h-8.585v2.075h8.585v-2.075Zm0 4.118h-8.585v.527h8.585v-.527Zm0 3.347h-8.585v.526h8.585v-.526Zm0 3.344h-8.585v.527h8.585v-.527Zm0 3.347h-8.585v.526h8.585v-.526Zm0 3.345h-8.585v.526h8.585v-.526Zm0 3.346h-8.585v.527h8.585v-.527Zm0 2.571h-8.585v2.075h8.585v-2.075Zm0 4.12h-8.585v.526h8.585v-.526Zm0 3.345h-8.585v.526h8.585v-.526Zm0 2.57h-8.585v2.076h8.585v-2.076Zm0 4.12h-8.585v.527h8.585v-.527Zm0 3.347h-8.585v.526h8.585v-.526Zm0 3.344h-8.585v.527h8.585v-.527Zm0 3.347h-8.585v.526h8.585v-.526Zm0 3.345h-8.585v.526h8.585v-.526Zm0 2.555h-8.585v2.076h8.585V544Zm0 3.345h-8.585v2.076h8.585v-2.076Zm0 4.121h-8.585v.526h8.585v-.526Zm0 3.346h-8.585v.527h8.585v-.527Zm0 3.345h-8.585v.526h8.585v-.526Zm0 3.346h-8.585v.527h8.585v-.527Zm0 3.345h-8.585v.526h8.585v-.526Zm0 3.346h-8.585v.526h8.585v-.526Zm0 2.571h-8.585v2.075h8.585v-2.075Zm0 4.12h-8.585v.526h8.585v-.526Zm0 2.571h-8.585v2.076h8.585v-2.076Zm0 4.12h-8.585v.527h8.585v-.527Zm0 2.571h-8.585v2.075h8.585v-2.075Zm0 4.12h-8.585v.527h8.585v-.527Zm0 3.345h-8.585v.526h8.585v-.526Zm0 3.346h-8.585v.527h8.585v-.527Zm0 3.345h-8.585v.527h8.585v-.527Zm0 3.346h-8.585v.527h8.585v-.527Zm0 2.555h-8.585v2.075h8.585v-2.075Zm0 4.136h-8.585v.527h8.585v-.527Zm0 2.555h-8.585v2.075h8.585v-2.075Zm0 4.12h-8.585v.527h8.585v-.527Zm0 3.346h-8.585v.527h8.585v-.527Zm0 3.345h-8.585v.527h8.585v-.527Zm0 3.346h-8.585v.527h8.585v-.527Zm0 3.345h-8.585v.527h8.585v-.527Zm0 3.346h-8.585v.527h8.585v-.527Zm0 3.345h-8.585v.526h8.585v-.526Zm0 3.346h-8.585v.527h8.585v-.527Zm0 2.571h-8.585v2.076h8.585v-2.076Zm0 4.119h-8.585v.527h8.585v-.527Zm0 3.346h-8.585v.527h8.585v-.527Zm0 3.346h-8.585v.527h8.585v-.527Zm0 3.345h-8.585v.527h8.585v-.527Zm0 3.345h-8.585v.527h8.585v-.527Zm0 3.347h-8.585v.526h8.585v-.526Zm0 3.344h-8.585v.527h8.585v-.527Zm0 3.346h-8.585v.527h8.585v-.527Zm0 2.556h-8.585v2.076h8.585v-2.076Zm0 4.119h-8.585v.526h8.585v-.526Zm0 3.346h-8.585v.527h8.585v-.527Zm0 3.345h-8.585v.527h8.585v-.527Zm0 3.346h-8.585v.527h8.585v-.527Zm0 3.345h-8.585v.527h8.585v-.527Zm0 3.346h-8.585v.527h8.585v-.527Zm0-234.68h-8.585v2.076h8.585v-2.076Zm0-2.34h-8.585v.527h8.585v-.527Zm0-3.113h-8.585v.527h8.585v-.527Zm0-3.112h-8.585v.526h8.585v-.526Zm0-3.114h-8.585v.527h8.585v-.527Zm0-3.129h-8.585v.527h8.585v-.527Zm0-3.113h-8.585v.526h8.585v-.526Zm0-3.113h-8.585v.527h8.585v-.527Zm0-3.903h-8.585v2.075h8.585v-2.075Zm0-2.339h-8.585v.527h8.585v-.527Zm0-3.904h-8.585v2.076h8.585v-2.076Zm0-2.338h-8.585v.527h8.585v-.527Zm0-3.113h-8.585v.526h8.585v-.526Zm0-3.113h-8.585v.527h8.585v-.527Zm0-3.113h-8.585v.526h8.585v-.526Zm0-3.129h-8.585v.527h8.585v-.527Zm0-3.113h-8.585v.526h8.585v-.526Zm0-3.113h-8.585v.527h8.585v-.527Zm0-3.128h-8.585v.526h8.585v-.526Zm0-3.114h-8.585v.527h8.585v-.527Zm0-3.904h-8.585v2.076h8.585v-2.076Zm0-2.323h-8.585v.527h8.585v-.527Zm0-3.128h-8.585v.526h8.585v-.526Zm0-3.113h-8.585v.527h8.585v-.527Zm0-3.114h-8.585v.527h8.585v-.527Zm0-3.128h-8.585v.527h8.585v-.527Zm0-3.114h-8.585v.527h8.585v-.527Zm0-3.112h-8.585v.527h8.585v-.527Zm0-3.13h-8.585v.527h8.585v-.527Zm0-3.887h-8.585v2.075h8.585v-2.075Zm0-2.338h-8.585v.526h8.585v-.526Zm0-3.114h-8.585v.526h8.585v-.526Zm0-3.129h-8.585v.527h8.585v-.527Zm0-3.112h-8.585v.527h8.585v-.527Zm0-3.114h-8.585v.527h8.585v-.527Zm0-3.128h-8.585v.526h8.585v-.526Zm0-3.113h-8.585v.526h8.585v-.526Zm0-3.113h-8.585v.527h8.585v-.527Z"/>
  <path fill="#ead2ef" d="M195.503 667.32a.984.984 0 0 1-.619-.209.652.652 0 0 1-.257-.503c0-48.65.115-108.048.248-165.51.133-57.462.228-116.86.228-165.494 0-.189.093-.37.257-.504a.99.99 0 0 1 .619-.208.99.99 0 0 1 .619.208.655.655 0 0 1 .257.504c0 48.634-.115 108.047-.248 165.494s-.228 116.86-.228 165.51a.672.672 0 0 1-.262.499 1.003 1.003 0 0 1-.614.213Z"/>
  <path fill="#ead2ef" d="M195.503 424.104a1.041 1.041 0 0 1-.401-.092.828.828 0 0 1-.303-.233l-44.964-54.21a.713.713 0 0 1-.153-.571.81.81 0 0 1 .343-.513.93.93 0 0 1 .31-.129c.113-.024.232-.028.347-.012a.924.924 0 0 1 .323.106.771.771 0 0 1 .239.205l44.963 54.21c.14.17.197.377.162.579a.81.81 0 0 1-.352.521 1.04 1.04 0 0 1-.514.139Zm0-28.854a1.015 1.015 0 0 1-.399-.084.807.807 0 0 1-.305-.226l-44.964-54.116a.713.713 0 0 1-.153-.571.807.807 0 0 1 .651-.639 1.04 1.04 0 0 1 .343-.015.968.968 0 0 1 .322.1c.098.05.181.117.246.195l44.963 54.21c.14.171.197.377.162.579a.81.81 0 0 1-.352.521 1.065 1.065 0 0 1-.514.046Zm0 59.413a1.014 1.014 0 0 1-.399-.083.818.818 0 0 1-.305-.226l-44.964-54.21a.713.713 0 0 1-.153-.571.81.81 0 0 1 .651-.639 1.013 1.013 0 0 1 .665.085.784.784 0 0 1 .246.196l44.963 54.209c.14.171.197.377.162.58a.81.81 0 0 1-.352.52 1.01 1.01 0 0 1-.514.139Zm0 30.575a1.015 1.015 0 0 1-.399-.084.815.815 0 0 1-.305-.225l-44.964-54.21a.713.713 0 0 1-.153-.571.81.81 0 0 1 .343-.513.91.91 0 0 1 .307-.132 1.004 1.004 0 0 1 .669.085c.098.053.18.121.243.202l44.963 54.209a.704.704 0 0 1 .16.572.796.796 0 0 1-.35.512.886.886 0 0 1-.514.155Zm0 30.604a1.015 1.015 0 0 1-.399-.084.807.807 0 0 1-.305-.226l-44.964-54.209a.713.713 0 0 1-.153-.571.81.81 0 0 1 .343-.513.91.91 0 0 1 .307-.132 1.004 1.004 0 0 1 .669.085c.098.053.18.121.243.202l44.963 54.209a.704.704 0 0 1 .16.572.796.796 0 0 1-.35.512.886.886 0 0 1-.514.155Zm0 30.543a1.015 1.015 0 0 1-.399-.084.807.807 0 0 1-.305-.226l-44.964-54.209a.713.713 0 0 1-.153-.571.81.81 0 0 1 .343-.513.91.91 0 0 1 .307-.132 1.004 1.004 0 0 1 .669.085c.098.053.18.121.243.202l44.963 54.209a.704.704 0 0 1 .16.572.796.796 0 0 1-.35.512.886.886 0 0 1-.514.155Zm.001 30.574a1.016 1.016 0 0 1-.4-.084.832.832 0 0 1-.305-.225l-44.964-54.21a.728.728 0 0 1-.155-.579.825.825 0 0 1 .346-.521.906.906 0 0 1 .31-.122c.113-.023.231-.027.345-.011a.939.939 0 0 1 .321.104c.097.052.179.12.242.2l44.964 54.209a.704.704 0 0 1 .16.572.8.8 0 0 1-.35.512.889.889 0 0 1-.514.155Zm0 30.575a.981.981 0 0 1-.404-.089.782.782 0 0 1-.301-.236l-44.964-54.194a.728.728 0 0 1-.155-.579.822.822 0 0 1 .656-.649.986.986 0 0 1 .669.093.76.76 0 0 1 .239.205l44.964 54.21a.704.704 0 0 1 .16.572.8.8 0 0 1-.35.512.889.889 0 0 1-.514.155Zm0 30.574a.998.998 0 0 1-.404-.089.784.784 0 0 1-.301-.237l-44.964-54.209a.728.728 0 0 1-.155-.579.825.825 0 0 1 .656-.649.986.986 0 0 1 .669.093.75.75 0 0 1 .239.206l44.964 54.209a.718.718 0 0 1 .162.579.817.817 0 0 1-.352.521 1.034 1.034 0 0 1-.514.155Zm-.477 28.654a1.004 1.004 0 0 1-.39-.086.795.795 0 0 1-.295-.224l-44.488-52.258a.706.706 0 0 1-.177-.577.794.794 0 0 1 .348-.523.944.944 0 0 1 .308-.126 1.013 1.013 0 0 1 .665.085.799.799 0 0 1 .246.196l44.487 52.258a.73.73 0 0 1 .165.576.82.82 0 0 1-.336.524 1.06 1.06 0 0 1-.533.155Z"/>
  <path fill="#ead2ef" d="M195.503 699.241h-45.382a1.075 1.075 0 0 1-.345-.069.903.903 0 0 1-.284-.172.705.705 0 0 1-.18-.248.591.591 0 0 1-.048-.286V336.997a.58.58 0 0 1 .025-.303.686.686 0 0 1 .178-.267.884.884 0 0 1 .298-.183 1.066 1.066 0 0 1 .73 0 .884.884 0 0 1 .298.183.686.686 0 0 1 .178.267.58.58 0 0 1 .025.303v306.671c.097.055.18.123.248.201l44.964 54.21a.73.73 0 0 1 .129.41.731.731 0 0 1-.129.411.82.82 0 0 1-.301.241c-.122.06-.261.094-.404.1Zm-44.507-1.549h42.775l-42.775-51.53v51.53Z"/>
  <path fill="#ead2ef" d="M150.12 419.815a.889.889 0 0 1-.514-.155.78.78 0 0 1-.346-.515.694.694 0 0 1 .175-.569l45.687-54.318a.746.746 0 0 1 .239-.205.987.987 0 0 1 .67-.094.89.89 0 0 1 .31.129.81.81 0 0 1 .335.524.729.729 0 0 1-.164.575l-45.687 54.318a.767.767 0 0 1-.303.23.97.97 0 0 1-.402.08Zm.001-29.212a.938.938 0 0 1-.514-.155.807.807 0 0 1-.344-.513.714.714 0 0 1 .154-.571l44.963-54.999a.74.74 0 0 1 .236-.21.998.998 0 0 1 .67-.102.9.9 0 0 1 .313.126.812.812 0 0 1 .352.52.716.716 0 0 1-.162.579l-44.945 55a.787.787 0 0 1-.309.24.993.993 0 0 1-.414.085Zm0 60.327a1.082 1.082 0 0 1-.514-.155.807.807 0 0 1-.344-.513.714.714 0 0 1 .154-.571l44.963-55.015a.785.785 0 0 1 .243-.2 1.024 1.024 0 0 1 .665-.093.815.815 0 0 1 .663.643.716.716 0 0 1-.162.579l-44.945 55a.848.848 0 0 1-.313.235 1.062 1.062 0 0 1-.41.09Zm0 31.039a.938.938 0 0 1-.514-.155.807.807 0 0 1-.344-.513.714.714 0 0 1 .154-.571l45.687-55.758a.768.768 0 0 1 .242-.2.939.939 0 0 1 .321-.104c.114-.016.232-.012.345.011a.81.81 0 0 1 .662.643.714.714 0 0 1-.162.579l-45.687 55.758a.783.783 0 0 1-.304.228.997.997 0 0 1-.4.082Zm0 31.04a.938.938 0 0 1-.514-.155.807.807 0 0 1-.344-.513.714.714 0 0 1 .154-.571l44.963-55a.748.748 0 0 1 .236-.209.941.941 0 0 1 .321-.111c.116-.017.235-.014.349.009a.817.817 0 0 1 .665.646.716.716 0 0 1-.162.579l-44.945 55.062a.832.832 0 0 1-.321.205 1.007 1.007 0 0 1-.402.058Zm0 31.038a.938.938 0 0 1-.514-.155.807.807 0 0 1-.344-.513.714.714 0 0 1 .154-.571l44.963-54.999a.72.72 0 0 1 .236-.211.888.888 0 0 1 .324-.109c.117-.016.236-.011.35.014a.879.879 0 0 1 .309.135.784.784 0 0 1 .356.512.689.689 0 0 1-.166.572l-44.945 55a.787.787 0 0 1-.309.24.993.993 0 0 1-.414.085Zm0 31.038a.927.927 0 0 1-.514-.155.792.792 0 0 1-.35-.512.703.703 0 0 1 .159-.572l44.964-54.999a.735.735 0 0 1 .239-.205.948.948 0 0 1 .67-.094.894.894 0 0 1 .309.128.786.786 0 0 1 .357.512.694.694 0 0 1-.166.573l-44.945 54.937a.758.758 0 0 1-.295.276.985.985 0 0 1-.428.111Zm-.001 31.04a1.067 1.067 0 0 1-.514-.139.823.823 0 0 1-.345-.521.728.728 0 0 1 .155-.579l44.964-54.968a.75.75 0 0 1 .239-.206.993.993 0 0 1 .67-.093.902.902 0 0 1 .309.128c.19.13.315.313.35.513a.704.704 0 0 1-.159.571L150.844 605.8a.794.794 0 0 1-.309.24c-.127.057-.27.086-.415.085Zm0 31.039a1.067 1.067 0 0 1-.514-.139.823.823 0 0 1-.345-.521.728.728 0 0 1 .155-.579l44.964-55.03a.75.75 0 0 1 .239-.206.97.97 0 0 1 .979.035c.19.13.315.313.35.513a.704.704 0 0 1-.159.571l-44.945 55.046a.845.845 0 0 1-.315.228 1.04 1.04 0 0 1-.409.082Zm0 31.038a1.056 1.056 0 0 1-.514-.139.818.818 0 0 1-.345-.521.728.728 0 0 1 .155-.579l44.964-54.999a.735.735 0 0 1 .239-.205.926.926 0 0 1 .322-.106c.116-.016.234-.012.348.012a.885.885 0 0 1 .309.129c.19.13.315.312.35.512a.707.707 0 0 1-.159.572l-44.945 55.015a.856.856 0 0 1-.315.228 1.023 1.023 0 0 1-.409.081Zm.001 31.039a1.064 1.064 0 0 1-.514-.139.81.81 0 0 1-.344-.514.714.714 0 0 1 .154-.571l44.963-55.015a.8.8 0 0 1 .243-.2 1.024 1.024 0 0 1 .665-.093.933.933 0 0 1 .311.123.8.8 0 0 1 .35.512.703.703 0 0 1-.16.572l-44.945 55.015a.834.834 0 0 1-.314.228 1.044 1.044 0 0 1-.409.082Zm37.73-412.999-1.542-1.425 21.473-15.597h.456c45.688 0 92.289 0 138.966.124 46.677.124 93.144.124 138.851.124v1.905c-45.687 0-92.288 0-138.851-.124s-92.86-.124-138.433-.124l-20.92 15.117Z"/>
  <path fill="#ead2ef" d="M193.808 291.26c-.164 0-.326-.028-.477-.081a1.213 1.213 0 0 1-.398-.229.841.841 0 0 1-.241-.631.88.88 0 0 1 .317-.608l27.565-19.918c.211-.161.49-.251.78-.251.29 0 .569.09.781.251l25.432 19.314 24.557-19.314a1.32 1.32 0 0 1 .79-.252c.293 0 .575.09.79.252l26.993 19.345 24.748-19.33c.212-.165.495-.258.79-.258.294 0 .577.093.79.258l26.784 19.345 25.451-19.329c.214-.158.492-.245.781-.245.288 0 .567.087.78.245l27.299 19.237 24.366-19.315c.219-.167.508-.261.809-.261.301 0 .59.094.809.261l25.871 19.33 25.223-19.314c.218-.156.499-.242.79-.242.29 0 .571.086.79.242l27.945 19.949a.895.895 0 0 1 .393.652.846.846 0 0 1-.288.688 1.284 1.284 0 0 1-.802.32 1.345 1.345 0 0 1-.845-.235l-27.203-19.361-25.242 19.346a1.342 1.342 0 0 1-.8.253c-.296 0-.581-.09-.799-.253l-25.87-19.315-24.348 19.299a1.32 1.32 0 0 1-.79.252 1.32 1.32 0 0 1-.79-.252l-27.203-19.361-25.471 19.346a1.323 1.323 0 0 1-.78.245c-.289 0-.567-.088-.78-.245l-26.842-19.377-24.747 19.315a1.35 1.35 0 0 1-.79.246 1.35 1.35 0 0 1-.79-.246l-26.974-19.315-24.557 19.315a1.32 1.32 0 0 1-.8.259c-.297 0-.584-.093-.799-.259l-25.452-19.345-26.784 19.36a1.321 1.321 0 0 1-.762.217Z"/>
  <path fill="#E0E0E0" d="M73.442 273.418H26.5v44.963h46.943v-44.963Z"/>
  <path fill="#ead2ef" d="M41.633 318.381c-.343 0-.61-10.068-.61-22.489 0-12.422.267-22.474.61-22.474.342 0 .609 10.067.609 22.474 0 12.406-.267 22.489-.61 22.489Zm18.122 0c-.343 0-.609-10.068-.609-22.489 0-12.422.267-22.474.61-22.474.342 0 .608 10.067.608 22.474 0 12.406-.323 22.489-.609 22.489Z"/>
  <path fill="#ead2ef" d="M514.533 291.632H22.063v-6.568h492.47v6.568Zm-491.29-.961h490.129v-4.646H23.243v4.646Z"/>
  <path fill="#ead2ef" d="M187.07 291.632a.58.58 0 0 1-.324-.093l-26.098-14.218a.482.482 0 0 1-.245-.307.409.409 0 0 1 .092-.359.538.538 0 0 1 .16-.129.68.68 0 0 1 .64.005l26.042 14.312a.486.486 0 0 1 .246.297.406.406 0 0 1-.075.353.625.625 0 0 1-.201.107.7.7 0 0 1-.237.032Z"/>
  <path fill="#ead2ef" d="M187.07 291.524a.655.655 0 0 1-.379-.114.45.45 0 0 1-.192-.289l-2.227-14.11-25.68 14.435a.71.71 0 0 1-.324.076.708.708 0 0 1-.323-.076.515.515 0 0 1-.22-.199c-.047-.083-.063-.175-.047-.265l9.518-60.808 1.2-7.605 1.389-8.859 1.142-7.342a.447.447 0 0 1 .194-.304.655.655 0 0 1 .397-.114h2.17a.651.651 0 0 1 .385.119.445.445 0 0 1 .186.299l4.93 31.225 1.238 7.744 1.294 8.178v.093a.48.48 0 0 1 0 .232l5.844 37.08a.369.369 0 0 1-.015.186.428.428 0 0 1-.103.166.534.534 0 0 1-.176.12.652.652 0 0 1-.22.054l.019.078Zm-23.967-27.632-4.111 26.176 23.49-13.212-20.749.372a.696.696 0 0 1-.336-.085.508.508 0 0 1-.216-.225.42.42 0 0 1-.005-.294.514.514 0 0 1 .195-.248l19.531-12.484h-17.799Zm19.151.31-18.808 12.05 20.655-.372-1.847-11.678Zm-17.628-1.27h17.438l-1.314-8.302-16.124 8.302Zm0-8.643-1.275 8.194 15.895-8.194h-14.62Zm1.504-.944h14.43l-1.123-7.079-13.307 7.079Zm-.19-7.419-1.085 6.954 13.097-6.954H165.94Zm1.313-.945h11.993l-1.028-6.521-10.965 6.521Zm0-6.908-1.009 6.381 10.718-6.381h-9.709Zm1.143-.945h9.689l-.933-5.916-8.756 5.916Zm0-6.427-.914 5.792 8.49-5.73-7.576-.062Zm.78-.93h7.729l-.952-6.102-6.777 6.102Zm.4-6.691-.895 5.716 6.377-5.685-5.482-.031Zm.457-.945h5.711l-1.105-7.016-4.606 7.016Zm.952-7.961-.933 5.917 3.807-5.979-2.874.062Zm1.161-7.357-1.009 6.397h3.141l-.99-6.335-1.142-.062Z"/>
  <path fill="#ead2ef" d="M176.334 223.111a.686.686 0 0 1-.3-.065.521.521 0 0 1-.214-.183l-5.863-8.999a.398.398 0 0 1-.042-.355.508.508 0 0 1 .27-.28.737.737 0 0 1 .451-.035c.075.019.144.05.203.09.06.04.109.09.146.146l5.863 8.984a.397.397 0 0 1 .041.36.454.454 0 0 1-.11.161.589.589 0 0 1-.179.114.522.522 0 0 1-.266.062Zm1.198 7.744a.711.711 0 0 1-.438-.139l-8.49-7.59a.462.462 0 0 1-.119-.161.401.401 0 0 1 .02-.368.506.506 0 0 1 .137-.152.707.707 0 0 1 .652-.081c.07.027.133.065.186.112l8.471 7.589a.493.493 0 0 1 .129.157.4.4 0 0 1 0 .369.5.5 0 0 1-.129.156.588.588 0 0 1-.195.089.672.672 0 0 1-.224.019Zm1.124 7.326a.818.818 0 0 1-.381-.108l-10.813-7.311a.43.43 0 0 1-.14-.308.428.428 0 0 1 .136-.31.632.632 0 0 1 .349-.166.71.71 0 0 1 .398.056l10.813 7.311a.47.47 0 0 1 .127.152.388.388 0 0 1 0 .361.473.473 0 0 1-.127.153.636.636 0 0 1-.362.17Zm1.218 7.853a.72.72 0 0 1-.342-.093l-13.173-7.853a.454.454 0 0 1-.191-.305.414.414 0 0 1 .108-.331.617.617 0 0 1 .351-.189.714.714 0 0 1 .417.051l13.211 7.852a.505.505 0 0 1 .214.243.397.397 0 0 1-.004.299.505.505 0 0 1-.22.239.699.699 0 0 1-.352.087h-.019Zm1.314 8.349a.754.754 0 0 1-.324-.078l-15.743-8.348a.598.598 0 0 1-.2-.124.465.465 0 0 1-.118-.181.398.398 0 0 1 .077-.396.56.56 0 0 1 .181-.143.705.705 0 0 1 .489-.048.635.635 0 0 1 .218.102l15.743 8.349a.502.502 0 0 1 .165.127.404.404 0 0 1 .087.171.359.359 0 0 1-.004.184.422.422 0 0 1-.095.168.523.523 0 0 1-.203.16.661.661 0 0 1-.273.057Zm1.523 9.602a.683.683 0 0 1-.305 0l-18.617-9.603a.533.533 0 0 1-.169-.124.425.425 0 0 1-.096-.168.387.387 0 0 1 .074-.358.612.612 0 0 1 .366-.201.708.708 0 0 1 .434.061l18.617 9.588a.568.568 0 0 1 .171.128c.046.052.078.11.096.172a.39.39 0 0 1 .007.189.43.43 0 0 1-.083.177.649.649 0 0 1-.228.117.725.725 0 0 1-.267.022Zm1.714 12.84a.615.615 0 0 1-.343-.092l-21.644-12.84a.478.478 0 0 1-.235-.311.411.411 0 0 1 .101-.355.649.649 0 0 1 .384-.185.72.72 0 0 1 .435.076l21.644 12.856a.47.47 0 0 1 .225.314.417.417 0 0 1-.111.352.563.563 0 0 1-.201.136.665.665 0 0 1-.255.049Z"/>
  <path fill="#ead2ef" d="M172.659 310.172a.673.673 0 0 1-.223-.037.598.598 0 0 1-.187-.104.467.467 0 0 1-.123-.156.407.407 0 0 1-.038-.183V205.13a.401.401 0 0 1 .038-.183.467.467 0 0 1 .123-.156.6.6 0 0 1 .187-.105.7.7 0 0 1 .223-.037c.157 0 .307.051.418.141.11.09.172.212.172.34v104.562a.412.412 0 0 1-.044.184.511.511 0 0 1-.128.156.623.623 0 0 1-.192.104.708.708 0 0 1-.226.036Zm-5.063-19.021h-13.249v36.615h13.249v-36.615Z"/>
  <path fill="#ead2ef" d="M198.492 308.979H162.78v19.252h35.712v-19.252Zm-43.384 4.058h-11.212v15.194h11.212v-15.194Zm46.772 20.972h-57.356v6.83h57.356v-6.83Z"/>
  <path fill="#ead2ef" d="M195.674 327.395h-46.182v3.795h46.182v-3.795Z"/>
  <path fill="#ead2ef" d="M193.314 330.524h-41.366v3.485h41.366v-3.485Zm2.418 98.552h-45.63v3.795h45.63v-3.795Zm-.229 82.26h-45.401v3.795h45.401v-3.795Zm0 86.611h-45.401v3.794h45.401v-3.794ZM30.02 278.187l-.609-.82 143.344-71.96.266.062 233.747 64.432-.38.898-233.481-64.354L30.02 278.187Z"/>
  <path fill="#ead2ef" d="M156.517 285.451h-.59v-7.434H22.939v7.434h-.57v-7.914h134.148v7.914Z"/>
  <path fill="#ead2ef" d="M30.001 277.786h-.59v7.481h.59v-7.481Zm6.035 0h-.59v7.481h.59v-7.481Zm6.034 0h-.59v7.481h.59v-7.481Zm6.035 0h-.59v7.481h.59v-7.481Zm6.015 0h-.59v7.481h.59v-7.481Zm6.035 0h-.59v7.481h.59v-7.481Zm6.035 0h-.59v7.481h.59v-7.481Zm6.034 0h-.59v7.481h.59v-7.481Zm6.034 0h-.59v7.481h.59v-7.481Zm6.035 0h-.59v7.481h.59v-7.481Zm6.016 0h-.59v7.481h.59v-7.481Zm6.034 0h-.59v7.481h.59v-7.481Zm6.035 0h-.59v7.481h.59v-7.481Zm6.034 0h-.59v7.481h.59v-7.481Zm6.034 0h-.59v7.481h.59v-7.481Zm6.016 0h-.59v7.481h.59v-7.481Zm6.035 0h-.59v7.481h.59v-7.481Zm6.034 0h-.59v7.481h.59v-7.481Zm6.035 0h-.59v7.481h.59v-7.481Zm6.034 0h-.59v7.481h.59v-7.481Zm6.016 0h-.591v7.481h.591v-7.481Zm-26.651 7.743h-12.202v5.623h12.202v-5.623Zm26.022 0h-12.202v5.623h12.202v-5.623Zm68.778 0h-12.202v5.623h12.202v-5.623Zm35.028 0H241.59v5.623h12.203v-5.623Zm35.026 0h-12.202v5.623h12.202v-5.623Zm35.027 0h-12.202v5.623h12.202v-5.623Zm35.046 0H346.69v5.623h12.202v-5.623Zm35.027 0h-12.203v5.623h12.203v-5.623Zm35.027 0h-12.202v5.623h12.202v-5.623Zm35.027 0h-12.202v5.623h12.202v-5.623Zm35.027 0h-12.203v5.623H499v-5.623Zm-401.763 0H85.035v5.623h12.203v-5.623Zm-26.727 0h-12.2v5.623h12.2v-5.623Zm-26.707 0H31.6v5.623h12.202v-5.623Zm127.413-79.618L49.627 277.417l.68.766 121.589-71.506-.68-.766ZM514.8 297.254c2.817 0 5.101-1.858 5.101-4.151 0-2.292-2.284-4.151-5.101-4.151-2.818 0-5.102 1.859-5.102 4.151 0 2.293 2.284 4.151 5.102 4.151Z"/>
  <path fill="#ead2ef" d="M493.917 297.254c2.817 0 5.101-1.858 5.101-4.151 0-2.292-2.284-4.151-5.101-4.151-2.818 0-5.102 1.859-5.102 4.151 0 2.293 2.284 4.151 5.102 4.151Z"/>
  <path fill="#ead2ef" d="M514.8 284.414h-28.84v7.496h28.84v-7.496Zm-339.818-80.169h-4.283v3.485h4.283v-3.485Z"/>
  <path fill="#ead2ef" d="M176.144 208.691h-6.625v-5.39h6.625v5.39Zm-4.283-1.905h1.903v-1.549h-1.903v1.549Z"/>
  <path fill="#ead2ef" d="M191.487 291.059c1.606.23 3.052.934 4.06 1.977 1.008 1.043 1.507 2.352 1.403 3.676v12.267h-29.754l.381-17.811 23.91-.109Z"/>
  <path fill="#E0E0E0" d="M191.487 291.059a8.292 8.292 0 0 1-1.732.124l-4.836.14-17.342.263.514-.418c0 5.235-.171 11.306-.285 17.827l-.609-.511h29.753l-.514.418v-11.678a6.165 6.165 0 0 0-.399-2.788c-.531-1.253-1.636-2.291-3.084-2.897-1.028-.418-1.637-.511-1.618-.557a3.868 3.868 0 0 1 1.751.325c.85.267 1.622.677 2.265 1.202a5.311 5.311 0 0 1 1.466 1.849c.408.95.589 1.954.533 2.959v12.112h-30.896v-.496c.171-6.521.324-12.592.457-17.827v-.418h.495l17.361.092 4.835.093a7.819 7.819 0 0 1 1.885.186Z"/>
  <path fill="#E0E0E0" d="M187.299 295.906c.228.201-2.228 2.137-5.483 4.321-3.255 2.184-6.034 3.764-6.263 3.563-.228-.202 2.246-2.153 5.502-4.337 3.255-2.184 5.977-3.795 6.244-3.547Zm.818 3.563c.21.202-1.503 1.689-3.807 3.3-2.303 1.61-4.416 2.741-4.626 2.54-.209-.202 1.504-1.689 3.808-3.299 2.303-1.611 4.397-2.742 4.625-2.541Z"/>
  <path fill="#ead2ef" d="M154.727 328.231c-.342 0-.609-8.193-.609-18.292 0-10.098.267-18.307.609-18.307.343 0 .609 8.193.609 18.307 0 10.114-.285 18.292-.609 18.292Z"/>
  <path fill="#E0E0E0" d="M195.979 328.231c0 .279-10.585.496-23.643.496-13.059 0-23.644-.217-23.644-.496s10.585-.496 23.644-.496c13.058 0 23.643.233 23.643.496Zm0 2.943c0 .279-10.394.496-23.243.496-12.85 0-23.244-.217-23.244-.496s10.413-.48 23.244-.48c12.83 0 23.243.217 23.243.48Zm0 2.834c0 .279-10.394.495-23.243.495-12.85 0-23.244-.216-23.244-.495s10.413-.496 23.244-.496c12.83 0 23.243.233 23.243.496Z"/>
  <path fill="#ead2ef" d="M411.147 267.857h-16.485v2.556h16.485v-2.556Z"/>
  <path fill="#263238" d="M900 699.241c0 .232-201.481.402-449.981.402S0 699.473 0 699.241c0-.233 201.443-.403 450.019-.403s449.981.186 449.981.403Zm-563.819-18.848h-13.097V196.58h13.097v483.813Zm-12.621-.388h12.222V196.967h-12.146l-.076 483.038Z"/>
  <path fill="#263238" d="M335.934 361.19h-12.621v1.549h12.621v-1.549Zm0 4.477h-12.621v1.548h12.621v-1.548Zm0 5.08h-12.621v.387h12.621v-.387Zm0 4.491h-12.621v.387h12.621v-.387Zm0 4.492h-12.621v.387h12.621v-.387Zm0 4.492h-12.621v.387h12.621v-.387Zm0 4.491h-12.621v.388h12.621v-.388Zm0 3.904h-12.621v1.549h12.621v-1.549Zm0 5.064h-12.621v.387h12.621v-.387Zm0 3.919h-12.621v1.549h12.621V401.6Zm0 5.065h-12.621v.387h12.621v-.387Zm0 4.491h-12.621v.387h12.621v-.387Zm0 4.491h-12.621v.388h12.621v-.388Zm0 4.492h-12.621v.387h12.621v-.387Zm0 4.493h-12.621v.387h12.621v-.387Zm0 4.491h-12.621v.387h12.621v-.387Zm0 3.903h-12.621v1.549h12.621v-1.549Zm0 5.08h-12.621v.388h12.621v-.388Zm0 4.492h-12.621v.387h12.621v-.387Zm0 3.902h-12.621v1.549h12.621V446.5Zm0 5.066h-12.621v.387h12.621v-.387Zm0 4.492h-12.621v.387h12.621v-.387Zm0 4.491h-12.621v.387h12.621v-.387Zm0 4.492h-12.621v.387h12.621v-.387Zm0 4.491h-12.621v.387h12.621v-.387Zm0 3.903h-12.621v1.548h12.621v-1.548Zm0 4.493h-12.621v1.549h12.621v-1.549Zm0 5.079h-12.621v.387h12.621v-.387Zm0 4.491h-12.621v.387h12.621v-.387Zm0 4.493h-12.621v.387h12.621v-.387Zm0 4.475h-12.621v.388h12.621v-.388Zm0 4.492h-12.621v.387h12.621v-.387Zm0 4.491h-12.621v.387h12.621v-.387Zm0 3.919h-12.621v1.549h12.621v-1.549Zm0 5.066h-12.621v.387h12.621v-.387Zm0 3.918h-12.621v1.548h12.621v-1.548Zm0 5.065h-12.621v.387h12.621v-.387Zm0 3.902h-12.621v1.549h12.621v-1.549Zm0 5.081h-12.621v.387h12.621v-.387Zm0 4.492h-12.621v.387h12.621v-.387Zm0 4.491h-12.621v.387h12.621v-.387Zm0 4.492h-12.621v.387h12.621v-.387Zm0 4.476h-12.621v.387h12.621v-.387Zm0 3.919h-12.621v1.549h12.621v-1.549Zm0 5.064h-12.621v.387h12.621v-.387Zm0 3.919h-12.621v1.549h12.621v-1.549Zm0 5.064h-12.621v.388h12.621v-.388Zm0 4.492h-12.621v.387h12.621v-.387Zm0 4.491h-12.621v.388h12.621v-.388Zm0 4.493h-12.621v.387h12.621v-.387Zm0 4.492h-12.621v.387h12.621v-.387Zm0 4.491h-12.621v.388h12.621v-.388Zm0 4.492h-12.621v.387h12.621v-.387Zm0 4.491h-12.621v.387h12.621v-.387Zm0 3.903h-12.621v1.548h12.621v-1.548Zm0 5.066h-12.621v.387h12.621v-.387Zm0 4.491h-12.621v.387h12.621v-.387Zm0 4.491h-12.621v.388h12.621v-.388Zm0 4.492h-12.621v.387h12.621v-.387Zm0 4.491h-12.621v.388h12.621v-.388Zm0 4.492h-12.621v.387h12.621v-.387Zm0 4.492h-12.621v.387h12.621v-.387Zm0 4.491h-12.621v.387h12.621v-.387Zm0 3.904h-12.621v1.549h12.621v-1.549Zm0 5.079h-12.621v.387h12.621v-.387Zm0 4.477h-12.621v.387h12.621v-.387Zm0 4.491h-12.621v.387h12.621v-.387Zm0 4.492h-12.621v.387h12.621v-.387Zm0 4.491h-12.621v.387h12.621v-.387Zm0 4.492h-12.621v.387h12.621v-.387Zm0-314.6h-12.621v1.548h12.621v-1.548Zm0-3.594h-12.621v.387h12.621v-.387Zm0-4.198h-12.621v.387h12.621v-.387Zm0-4.181h-12.621v.387h12.621v-.387Zm0-4.182h-12.621v.388h12.621v-.388Zm0-4.182h-12.621v.387h12.621v-.387Zm0-4.198h-12.621v.387h12.621v-.387Zm0-4.182h-12.621v.388h12.621v-.388Zm0-4.77h-12.621v1.549h12.621v-1.549Zm0-3.593h-12.621v.387h12.621v-.387Zm0-4.771h-12.621v1.549h12.621v-1.549Zm0-3.609h-12.621v.387h12.621v-.387Zm0-4.181h-12.621v.387h12.621v-.387Zm0-4.182h-12.621v.388h12.621v-.388Zm0-4.197h-12.621v.387h12.621v-.387Zm0-4.183h-12.621v.387h12.621v-.387Zm0-4.181h-12.621v.387h12.621v-.387Zm0-4.182h-12.621v.387h12.621v-.387Zm0-4.198h-12.621v.388h12.621v-.388Zm0-4.181h-12.621v.387h12.621v-.387Zm0-4.77h-12.621v1.549h12.621v-1.549Zm0-3.594h-12.621v.387h12.621v-.387Zm0-4.182h-12.621v.388h12.621v-.388Zm0-4.197h-12.621v.387h12.621v-.387Zm0-4.183h-12.621v.387h12.621v-.387Zm0-4.181h-12.621v.387h12.621v-.387Zm0-4.182h-12.621v.387h12.621v-.387Zm0-4.198h-12.621v.388h12.621v-.388Zm0-4.181h-12.621v.388h12.621v-.388Zm0-4.77h-12.621v1.549h12.621v-1.549Zm0-3.594h-12.621v.387h12.621v-.387Zm0-4.198h-12.621v.388h12.621v-.388Zm0-4.181h-12.621v.387h12.621v-.387Zm0-4.183h-12.621v.387h12.621v-.387Zm0-4.181h-12.621v.387h12.621v-.387Zm0-4.198h-12.621v.387h12.621v-.387Zm0-4.181h-12.621v.387h12.621v-.387Zm0-4.182h-12.621v.388h12.621v-.388Z"/>
  <path fill="#A020F0" d="M360.396 680.778a.816.816 0 0 1-.5-.177.54.54 0 0 1-.205-.411c0-71.557.172-158.958.343-243.479.171-84.52.362-171.921.362-243.478a.485.485 0 0 1 .016-.253.572.572 0 0 1 .146-.223.735.735 0 0 1 .248-.153.86.86 0 0 1 .607 0c.095.036.18.088.248.153a.559.559 0 0 1 .145.223.475.475 0 0 1 .017.253c0 71.557-.171 158.958-.361 243.478-.191 84.521-.343 171.922-.343 243.479a.538.538 0 0 1-.212.416.818.818 0 0 1-.511.172Z"/>
  <path fill="#A020F0" d="M360.396 311.395a.856.856 0 0 1-.319-.063.701.701 0 0 1-.252-.17l-66.132-72.795a.508.508 0 0 1-.132-.436.577.577 0 0 1 .284-.385.881.881 0 0 1 .535-.102.791.791 0 0 1 .474.226l66.132 72.795a.51.51 0 0 1 .123.428.582.582 0 0 1-.275.378.892.892 0 0 1-.438.124Zm0-38.721a.875.875 0 0 1-.319-.062.728.728 0 0 1-.252-.17l-66.132-72.796a.507.507 0 0 1-.132-.436.58.58 0 0 1 .284-.385.88.88 0 0 1 .535-.101.79.79 0 0 1 .474.225l66.132 72.796a.506.506 0 0 1 .123.427.58.58 0 0 1-.275.378.882.882 0 0 1-.438.124Zm0 79.75a.875.875 0 0 1-.319-.062.728.728 0 0 1-.252-.17l-66.132-72.796a.507.507 0 0 1-.132-.436.58.58 0 0 1 .284-.385.88.88 0 0 1 .535-.101.79.79 0 0 1 .474.225l66.132 72.796a.506.506 0 0 1 .123.427.58.58 0 0 1-.275.378.882.882 0 0 1-.438.124Zm0 41.06a.875.875 0 0 1-.319-.062.714.714 0 0 1-.252-.17l-66.132-72.796a.506.506 0 0 1-.132-.436.58.58 0 0 1 .284-.385.88.88 0 0 1 .535-.101.79.79 0 0 1 .474.225l66.132 72.796a.516.516 0 0 1 .15.301.48.48 0 0 1-.075.319.638.638 0 0 1-.276.234.838.838 0 0 1-.389.075Zm0 41.029a.925.925 0 0 1-.315-.068.787.787 0 0 1-.256-.164l-66.132-72.796a.506.506 0 0 1-.132-.436.58.58 0 0 1 .284-.385.88.88 0 0 1 .535-.101.796.796 0 0 1 .474.225l66.132 72.796a.507.507 0 0 1 .123.428.577.577 0 0 1-.275.377.872.872 0 0 1-.438.124Zm0 41.059a.924.924 0 0 1-.315-.067.789.789 0 0 1-.256-.165l-66.132-72.796a.506.506 0 0 1-.132-.436.58.58 0 0 1 .284-.385.88.88 0 0 1 .535-.101.796.796 0 0 1 .474.225l66.132 72.796a.508.508 0 0 1 .123.428.577.577 0 0 1-.275.377.872.872 0 0 1-.438.124Zm0 41.029a.949.949 0 0 1-.315-.068.803.803 0 0 1-.256-.164l-66.132-72.796a.506.506 0 0 1-.132-.436.58.58 0 0 1 .284-.385.88.88 0 0 1 .535-.101.79.79 0 0 1 .474.225l66.132 72.796a.506.506 0 0 1 .123.427.577.577 0 0 1-.275.378.872.872 0 0 1-.438.124Zm0 41.061a.949.949 0 0 1-.315-.068.789.789 0 0 1-.256-.165l-66.132-72.795a.508.508 0 0 1-.132-.436.577.577 0 0 1 .284-.385.881.881 0 0 1 .535-.102.791.791 0 0 1 .474.226l66.132 72.795a.51.51 0 0 1 .123.428.582.582 0 0 1-.275.378.892.892 0 0 1-.438.124Zm0 41.028a.924.924 0 0 1-.315-.067.789.789 0 0 1-.256-.165l-66.132-72.796a.506.506 0 0 1-.132-.436.578.578 0 0 1 .284-.384.874.874 0 0 1 .535-.102.796.796 0 0 1 .474.225l66.132 72.796a.508.508 0 0 1 .123.428.582.582 0 0 1-.275.378.881.881 0 0 1-.438.123Zm-.686 38.474a.954.954 0 0 1-.315-.068.8.8 0 0 1-.256-.165l-65.428-70.162a.548.548 0 0 1-.121-.202.483.483 0 0 1 .072-.435.633.633 0 0 1 .183-.169.788.788 0 0 1 .247-.098.875.875 0 0 1 .275-.014c.092.01.181.035.261.073.08.037.15.088.207.148l65.447 70.147c.11.125.158.279.133.432a.585.585 0 0 1-.267.389.876.876 0 0 1-.438.124Z"/>
  <path fill="#A020F0" d="M360.396 680.779h-66.741a.837.837 0 0 1-.274-.045.72.72 0 0 1-.231-.128.58.58 0 0 1-.152-.192.487.487 0 0 1-.048-.224V194.906a.492.492 0 0 1 .048-.224.587.587 0 0 1 .152-.191.72.72 0 0 1 .231-.128.837.837 0 0 1 .274-.045c.192 0 .376.062.511.172a.54.54 0 0 1 .212.416v411.993a.957.957 0 0 1 .476.232l66.132 72.796c.065.092.1.196.1.302 0 .106-.035.21-.1.302a.675.675 0 0 1-.257.184.848.848 0 0 1-.333.064Zm-66.018-1.162h64.609l-64.609-71.061v71.061Z"/>
  <path fill="#A020F0" d="M293.654 305.726a.763.763 0 0 1-.418-.124.615.615 0 0 1-.188-.165.477.477 0 0 1-.083-.437.552.552 0 0 1 .118-.203l67.103-72.935a.655.655 0 0 1 .204-.153.852.852 0 0 1 .536-.067c.09.018.176.051.25.096a.584.584 0 0 1 .285.385.51.51 0 0 1-.132.436l-67.103 72.919a.696.696 0 0 1-.25.179.848.848 0 0 1-.322.069Zm0-39.247a.793.793 0 0 1-.418-.109.615.615 0 0 1-.188-.165.477.477 0 0 1-.083-.437.552.552 0 0 1 .118-.203l66.133-73.849a.676.676 0 0 1 .203-.152.842.842 0 0 1 .786.028.64.64 0 0 1 .187.166.477.477 0 0 1 .083.436.549.549 0 0 1-.117.203l-66.132 73.772a.617.617 0 0 1-.235.217.795.795 0 0 1-.337.093Zm0 80.911a.793.793 0 0 1-.418-.109.615.615 0 0 1-.188-.165.506.506 0 0 1-.095-.212.473.473 0 0 1 .012-.224.547.547 0 0 1 .118-.204l66.133-73.803a.745.745 0 0 1 .463-.228.824.824 0 0 1 .526.105c.152.09.253.226.282.377a.498.498 0 0 1-.129.428l-66.132 73.849a.705.705 0 0 1-.259.148.843.843 0 0 1-.313.038Zm.001 41.68a.857.857 0 0 1-.37-.092.66.66 0 0 1-.259-.233.503.503 0 0 1-.074-.309.524.524 0 0 1 .132-.295l67.103-74.918a.652.652 0 0 1 .2-.157.81.81 0 0 1 .259-.082.865.865 0 0 1 .531.1.58.58 0 0 1 .284.384.506.506 0 0 1-.132.436l-67.103 74.934a.691.691 0 0 1-.251.171.825.825 0 0 1-.32.061Zm-.001 41.664a.793.793 0 0 1-.418-.109.628.628 0 0 1-.188-.165.477.477 0 0 1-.083-.437.552.552 0 0 1 .118-.203l66.133-73.849a.676.676 0 0 1 .203-.152.842.842 0 0 1 .786.028.64.64 0 0 1 .187.166.477.477 0 0 1 .083.436.549.549 0 0 1-.117.203l-66.132 73.849a.67.67 0 0 1-.251.174.84.84 0 0 1-.321.059Zm0 41.741a.967.967 0 0 1-.418-.108.584.584 0 0 1-.285-.385.51.51 0 0 1 .132-.436l66.133-73.849a.762.762 0 0 1 .464-.224.86.86 0 0 1 .526.1.648.648 0 0 1 .194.168.473.473 0 0 1 .083.446.543.543 0 0 1-.125.207l-66.132 73.771a.641.641 0 0 1-.236.216.81.81 0 0 1-.336.094Zm0 41.602a.802.802 0 0 1-.418-.108.631.631 0 0 1-.188-.166.476.476 0 0 1-.083-.436.547.547 0 0 1 .118-.204l66.133-73.849a.652.652 0 0 1 .203-.152.81.81 0 0 1 .26-.078.88.88 0 0 1 .276.01.793.793 0 0 1 .444.26.46.46 0 0 1 .083.439.526.526 0 0 1-.124.203l-66.132 73.849a.667.667 0 0 1-.251.173.804.804 0 0 1-.321.059Zm0 41.679a.784.784 0 0 1-.418-.108.584.584 0 0 1-.285-.385.51.51 0 0 1 .132-.436l66.133-73.833a.746.746 0 0 1 .463-.229.841.841 0 0 1 .527.105c.151.09.252.226.281.377a.498.498 0 0 1-.129.428l-66.132 73.849a.67.67 0 0 1-.251.174.82.82 0 0 1-.321.058Zm.001 41.68a.857.857 0 0 1-.37-.092.66.66 0 0 1-.259-.233.503.503 0 0 1-.074-.309.524.524 0 0 1 .132-.295l66.132-73.849a.662.662 0 0 1 .203-.153.832.832 0 0 1 .787.029.628.628 0 0 1 .193.163.46.46 0 0 1 .083.439.514.514 0 0 1-.124.203l-66.132 73.849a.678.678 0 0 1-.249.18.815.815 0 0 1-.322.068Zm-.001 41.664a.793.793 0 0 1-.418-.109.615.615 0 0 1-.188-.165.476.476 0 0 1-.083-.436.547.547 0 0 1 .118-.204l66.133-73.849a.746.746 0 0 1 .463-.229.837.837 0 0 1 .526.105.574.574 0 0 1 .282.377.501.501 0 0 1-.129.429l-66.132 73.848a.658.658 0 0 1-.251.174.804.804 0 0 1-.321.059Zm0 41.679a.981.981 0 0 1-.418-.108.586.586 0 0 1-.285-.385.51.51 0 0 1 .132-.436l66.133-73.849a.762.762 0 0 1 .464-.224.86.86 0 0 1 .526.1.631.631 0 0 1 .194.167c.05.066.084.14.098.217a.473.473 0 0 1-.015.23.55.55 0 0 1-.125.207l-66.132 73.833a.688.688 0 0 1-.249.181.833.833 0 0 1-.323.067Zm54.178-560.077-1.275-1.162 32.19-23.326h.362c67.255 0 136.928.078 204.298.17 67.369.094 137.061.187 204.298.187v1.548c-67.256 0-136.929-.093-204.298-.185-67.37-.093-136.796-.17-203.937-.17l-31.638 22.938Z"/>
  <path fill="#A020F0" d="M355.96 128.523a1.19 1.19 0 0 1-.395-.07 1.02 1.02 0 0 1-.328-.193.7.7 0 0 1-.227-.566.744.744 0 0 1 .322-.534l42.489-30.404c.175-.128.402-.2.638-.2.235 0 .463.072.637.2l37.94 28.778L473.7 96.725c.178-.13.408-.201.647-.201.239 0 .469.072.647.201l40.205 28.855 37.007-28.824c.173-.132.401-.205.637-.205.237 0 .465.073.638.205l39.976 28.855 37.978-28.84c.175-.128.402-.199.638-.199.235 0 .463.071.637.2l40.529 28.855 36.34-28.824c.177-.138.412-.214.657-.214.244 0 .48.076.657.214l38.529 28.731 37.616-28.824c.18-.127.41-.196.647-.196.238 0 .468.07.647.196l41.195 29.319a.724.724 0 0 1 .292.526c.01.2-.075.395-.237.544a1.04 1.04 0 0 1-.633.26 1.108 1.108 0 0 1-.678-.168l-40.548-28.855-37.654 28.839a1.08 1.08 0 0 1-.647.207 1.08 1.08 0 0 1-.647-.207l-38.587-28.808-36.321 28.839a1.08 1.08 0 0 1-.647.207 1.08 1.08 0 0 1-.647-.207l-40.548-28.855-37.977 28.84a1.057 1.057 0 0 1-.638.205c-.237 0-.465-.073-.638-.205l-39.976-28.793-36.988 28.824a1.109 1.109 0 0 1-.647.201c-.239 0-.469-.072-.647-.201l-40.129-28.824-36.664 28.808a1.073 1.073 0 0 1-.657.214c-.244 0-.479-.076-.656-.214l-38.073-28.839-41.88 29.939a1.033 1.033 0 0 1-.495.217Z"/>
  <path fill="#455A64" d="M180.826 101.744h-69.063v66.151h69.063v-66.151Z"/>
  <path fill="#263238" d="M133.996 167.895c-.266 0-.495-14.807-.495-33.068 0-18.261.229-33.083.495-33.083.267 0 .495 14.807.495 33.083 0 18.276-.171 33.068-.495 33.068Zm26.651 0c-.266 0-.495-14.807-.495-33.068 0-18.261.229-33.083.495-33.083.267 0 .495 14.807.495 33.083 0 18.276-.247 33.068-.495 33.068Z"/>
  <path fill="#A020F0" d="M829.375 128.228H105.633v-9.045h723.742v9.045Zm-722.79-.774h721.838v-7.496H106.585v7.496Z"/>
  <path fill="#A020F0" d="M348.003 128.229a.628.628 0 0 1-.266 0l-38.32-21.111a.421.421 0 0 1-.129-.11.332.332 0 0 1-.062-.293.366.366 0 0 1 .076-.139.445.445 0 0 1 .13-.104.53.53 0 0 1 .518.011l38.32 21.033a.462.462 0 0 1 .134.108c.035.042.06.09.072.141a.305.305 0 0 1 0 .153.35.35 0 0 1-.073.14.47.47 0 0 1-.175.125.603.603 0 0 1-.225.046Z"/>
  <path fill="#A020F0" d="M348.003 128.089a.515.515 0 0 1-.31-.097.354.354 0 0 1-.147-.244l-3.35-21.25-38.32 21.514a.564.564 0 0 1-.511.014.435.435 0 0 1-.182-.158.329.329 0 0 1-.05-.212l14.049-89.477 1.752-11.198 3.807-23.899a.35.35 0 0 1 .146-.243.522.522 0 0 1 .311-.098h3.198c.117 0 .23.034.318.097.087.063.144.15.158.244l1.675 10.656 3.807 24.518 3.503 22.288 1.903 12.112a.248.248 0 0 1 0 .108.277.277 0 0 1 0 .248l8.605 54.613a.336.336 0 0 1-.091.283.504.504 0 0 1-.309.15l.038.031Zm-38.682-21.018-3.103 19.81 36.36-20.429-33.257.619Zm31.886-19.469-30.458 18.587 33.39-.62-2.932-17.967Zm-28.802-.185-2.912 18.586 30.458-18.586h-27.546Zm1.276-.775h27.374l-2.056-13.057-25.318 13.057Zm.951-13.35-2.036 12.994 25.185-12.995h-23.149Zm1.238-.775h22.958l-1.771-11.23-21.187 11.23Zm.685-11.508-1.751 11.151 20.978-11.151h-19.227Zm1.085-.775h19.246l-1.637-10.47-17.609 10.47Zm.724-10.842-1.618 10.424 17.399-10.362-15.781-.062Zm.951-.774h15.763L333.555 39l-14.24 9.618Zm.762-10.083-1.428 9.65 14.03-9.495-12.602-.155Zm.647-.759h12.64l-1.561-9.82-11.079 9.82Zm1.104-10.455-1.504 9.665 10.737-9.618-9.233-.047Zm.381-.774h9.385l-1.904-11.632-7.481 11.632Zm1.675-12.39-1.675 10.64 7.024-10.765-5.349.124Zm1.694-10.843-1.561 10.037 5.483-.109-1.561-9.928h-2.361Z"/>
  <path fill="#A020F0" d="M332.203 27.523a.582.582 0 0 1-.242-.056.464.464 0 0 1-.177-.145l-8.623-13.228a.32.32 0 0 1-.04-.295.368.368 0 0 1 .087-.134.462.462 0 0 1 .143-.097.555.555 0 0 1 .368-.026c.06.016.116.042.164.075a.405.405 0 0 1 .115.121l8.624 13.212a.324.324 0 0 1 .039.296.368.368 0 0 1-.087.133.462.462 0 0 1-.143.097l-.228.047Zm1.771 11.275a.566.566 0 0 1-.2-.037.47.47 0 0 1-.162-.102l-12.488-11.152a.368.368 0 0 1-.138-.279c0-.104.05-.204.138-.278a.538.538 0 0 1 .333-.111c.125 0 .244.04.333.11l12.488 11.168c.087.072.136.17.136.27a.354.354 0 0 1-.136.272.573.573 0 0 1-.304.14Zm1.637 10.842a.592.592 0 0 1-.305-.093L319.411 38.8a.462.462 0 0 1-.158-.11.325.325 0 0 1-.081-.325.37.37 0 0 1 .093-.152.483.483 0 0 1 .164-.105.572.572 0 0 1 .407-.001c.064.024.12.06.165.104l15.914 10.749a.38.38 0 0 1 .107.123.312.312 0 0 1 0 .296.381.381 0 0 1-.107.123.51.51 0 0 1-.304.14Zm1.827 11.51a.461.461 0 0 1-.285 0l-19.417-11.555a.47.47 0 0 1-.158-.106.366.366 0 0 1-.088-.149.31.31 0 0 1-.004-.165.354.354 0 0 1 .081-.152.454.454 0 0 1 .152-.11.578.578 0 0 1 .397-.026.51.51 0 0 1 .172.088l19.398 11.508a.43.43 0 0 1 .128.11.325.325 0 0 1 .062.294.363.363 0 0 1-.076.138.488.488 0 0 1-.165.094.571.571 0 0 1-.197.03Zm1.904 12.281a.513.513 0 0 1-.248 0L315.927 61.15a.451.451 0 0 1-.134-.107.352.352 0 0 1-.072-.141.305.305 0 0 1 0-.153.342.342 0 0 1 .073-.141.492.492 0 0 1 .297-.16.568.568 0 0 1 .35.051l23.148 12.236a.422.422 0 0 1 .133.103.34.34 0 0 1 .072.138.325.325 0 0 1-.072.286.471.471 0 0 1-.166.121.583.583 0 0 1-.214.05Zm2.246 14.125a.466.466 0 0 1-.248 0l-27.393-14.11a.417.417 0 0 1-.21-.246.341.341 0 0 1 .058-.296.482.482 0 0 1 .292-.17.572.572 0 0 1 .355.046l27.393 14.032a.443.443 0 0 1 .139.105c.038.042.064.09.078.14a.31.31 0 0 1 .005.154.457.457 0 0 1-.238.285.58.58 0 0 1-.231.06Zm2.57 18.866a.574.574 0 0 1-.267 0l-31.905-18.943a.41.41 0 0 1-.133-.103.316.316 0 0 1-.07-.14.283.283 0 0 1 .007-.15.33.33 0 0 1 .082-.133.45.45 0 0 1 .135-.105.583.583 0 0 1 .531.012l31.905 18.865a.418.418 0 0 1 .129.109.343.343 0 0 1 .067.142.313.313 0 0 1-.005.152.355.355 0 0 1-.077.139.546.546 0 0 1-.179.113.651.651 0 0 1-.22.042Z"/>
  <path fill="#A020F0" d="M326.816 155.504a.534.534 0 0 1-.337-.114.354.354 0 0 1-.139-.274V1.286c0-.104.05-.202.139-.275a.535.535 0 0 1 .337-.113c.126 0 .247.04.336.113.089.073.14.171.14.274v153.831a.355.355 0 0 1-.14.274.533.533 0 0 1-.336.114Zm-7.501-27.663h-19.474v53.885h19.474v-53.885Z"/>
  <path fill="#A020F0" d="M364.794 154.079h-52.541v28.328h52.541v-28.328Zm-63.83 5.963h-16.485v22.366h16.485v-22.366Zm68.798 30.854h-84.37v10.052h84.37v-10.052Z"/>
  <path fill="#A020F0" d="M360.662 181.153h-67.94v5.576h67.94v-5.576Z"/>
  <path fill="#A020F0" d="M357.198 185.769h-60.859v5.126h60.859v-5.126Zm3.559 146.226h-67.141v3.098h67.141v-3.098Zm-.361 121.011h-66.78v3.098h66.78v-3.098Zm0 127.424h-66.78v3.098h66.78v-3.098ZM116.75 108.497l-.495-.651L327.006 2.029l.209.062 343.873 94.774-.305.744L327.12 2.88 116.75 108.497Z"/>
  <path fill="#A020F0" d="M302.849 119.462h-.476v-11.105H106.356v11.105h-.476V107.97h196.969v11.492Z"/>
  <path fill="#A020F0" d="M116.731 108.171h-.476v10.997h.476v-10.997Zm8.87 0h-.476v10.997h.476v-10.997Zm8.872 0h-.476v10.997h.476v-10.997Zm8.871 0h-.476v10.997h.476v-10.997Zm8.89 0h-.476v10.997h.476v-10.997Zm8.871 0h-.476v10.997h.476v-10.997Zm8.87 0h-.476v10.997h.476v-10.997Zm8.871 0h-.476v10.997h.476v-10.997Zm8.871 0h-.476v10.997h.476v-10.997Zm8.871 0h-.476v10.997h.476v-10.997Zm8.871 0h-.476v10.997h.476v-10.997Zm8.871 0h-.476v10.997h.476v-10.997Zm8.871 0h-.476v10.997h.476v-10.997Zm8.871 0h-.476v10.997h.476v-10.997Zm8.871 0h-.476v10.997h.476v-10.997Zm8.871 0h-.476v10.997h.476v-10.997Zm8.87 0h-.476v10.997h.476v-10.997Zm8.872 0h-.476v10.997h.476v-10.997Zm8.89 0h-.476v10.997h.476v-10.997Zm8.87 0h-.476v10.997h.476v-10.997Zm8.872 0h-.476v10.997h.476v-10.997Zm-39.006 11.4h-17.971v8.271h17.971v-8.271Zm38.282 0h-17.97v8.271h17.97v-8.271Zm101.178 0h-17.97v8.271h17.97v-8.271Zm51.532 0h-17.971v8.271h17.971v-8.271Zm51.55 0h-17.971v8.271h17.971v-8.271Zm51.531 0h-17.97v8.271h17.97v-8.271Zm51.532 0h-17.97v8.271h17.97v-8.271Zm51.531 0h-17.97v8.271h17.97v-8.271Zm51.531 0h-17.97v8.271h17.97v-8.271Zm51.532 0h-17.97v8.271h17.97v-8.271Zm51.55 0h-17.97v8.271h17.97v-8.271Zm-591.059 0h-17.97v8.271h17.97v-8.271Zm-39.31 0h-17.97v8.271h17.97v-8.271Zm-39.329 0h-17.97v8.271h17.97v-8.271ZM324.892 2.683 146.019 107.878l.558.628L325.449 3.311l-.557-.628Z"/>
  <path fill="#263238" d="M830.155 136.825c4.143 0 7.501-2.732 7.501-6.102 0-3.371-3.358-6.103-7.501-6.103-4.142 0-7.5 2.732-7.5 6.103 0 3.37 3.358 6.102 7.5 6.102Zm-30.743 0c4.142 0 7.5-2.732 7.5-6.102 0-3.371-3.358-6.103-7.5-6.103-4.142 0-7.501 2.732-7.501 6.103 0 3.37 3.359 6.102 7.501 6.102Z"/>
  <path fill="#A020F0" d="M830.136 117.929h-42.432v11.028h42.432v-11.028Z"/>
  <path fill="#263238" d="M830.155 128.973a2.656 2.656 0 0 1 0-.806v-2.199c0-1.967-.114-4.647-.171-8.039l.324.264c-10.09.093-25.376.139-42.432.139.209-.17-.514.403.476-.403v10.997l-.495-.403c12.107 0 22.634.109 30.21.186l8.928.109h3.313a4.63 4.63 0 0 1-.781 0h-2.322l-8.795.108c-7.615.078-18.237.171-30.553.186h-.476v-11.136c.99-.806.285-.217.514-.403 17.132 0 32.361 0 42.432.155h.323v.248c0 3.423-.133 6.195-.171 8.209v2.137a3.406 3.406 0 0 1-.324.651Z"/>
  <path fill="#E0E0E0" d="M379.394 675.73H272.048v23.527h107.346V675.73Z"/>
  <path fill="#fff" d="M379.394 684.466H272.048v5.746h107.346v-5.746Z"/>
  <path fill="#A020F0" d="m272.048 684.466 2.893 5.746h5.521l-3.217-5.746h-5.197Zm10.87 0 2.893 5.746h5.502l-3.217-5.746h-5.178Zm10.85 0 2.893 5.746h5.521l-3.217-5.746h-5.197Zm10.871 0 2.893 5.746h5.502l-3.218-5.746h-5.177Zm10.85 0 2.894 5.746h5.52l-3.217-5.746h-5.197Zm10.87 0 2.893 5.746h5.521l-3.236-5.746h-5.178Zm10.869 0 2.875 5.746h5.52l-3.217-5.746h-5.178Zm10.851 0 2.894 5.746h5.521l-3.218-5.746h-5.197Zm10.87 0 2.874 5.746h5.521l-3.218-5.746h-5.177Zm10.851 0 2.893 5.746h5.521l-3.217-5.746H369.8Z"/>
  <path fill="#263238" d="M380.118 684.543c0 .217-24.233.403-54.12.403-29.887 0-54.121-.186-54.121-.403 0-.216 24.234-.402 54.121-.402s54.12.17 54.12.402Zm0 5.994c0 .216-24.233.402-54.12.402-29.887 0-54.121-.186-54.121-.402 0-.217 24.234-.403 54.121-.403s54.12.17 54.12.403Z"/>
  <path fill="#A020F0" d="M330.204 0h-6.301v5.127h6.301V0Z"/>
  <path fill="#263238" d="M588.451 181.556h-.952v70.054h.952v-70.054Zm13.592-39.744c4.142 0 7.5-2.732 7.5-6.103 0-3.37-3.358-6.102-7.5-6.102-4.142 0-7.5 2.732-7.5 6.102 0 3.371 3.358 6.103 7.5 6.103Zm-26.993 0c4.142 0 7.5-2.732 7.5-6.103 0-3.37-3.358-6.102-7.5-6.102-4.143 0-7.501 2.732-7.501 6.102 0 3.371 3.358 6.103 7.501 6.103Zm-13.821-6.706c2.66 0 4.816-1.755 4.816-3.919s-2.156-3.918-4.816-3.918c-2.66 0-4.816 1.754-4.816 3.918s2.156 3.919 4.816 3.919Z"/>
  <path fill="#263238" d="M578.077 165.649a94.98 94.98 0 0 1-.495-13.614 95.354 95.354 0 0 1 .495-13.63c.501 4.531.667 9.083.495 13.63a91.886 91.886 0 0 1-.495 13.614Zm20.92 0a91.886 91.886 0 0 1-.495-13.614 92.243 92.243 0 0 1 .495-13.63c.49 4.532.656 9.083.495 13.63a94.98 94.98 0 0 1-.495 13.614Z"/>
  <path fill="#263238" d="M573.965 163.047c0 .387 5.901 22.102 5.901 22.102h15.819l5.711-22.102-13.725-4.647-13.706 4.647Z"/>
  <path fill="#A020F0" d="M623.25 257.062h-71.977v36.073h71.977v-36.073Z"/>
  <path fill="#455A64" d="M628.256 291.926h-82.713v2.463h82.713v-2.463Zm0 5.515h-82.713v2.463h82.713v-2.463Z"/>
  <path fill="#455A64" d="M555.061 293.149h-4.264v5.53h4.264v-5.53Zm12.773 0h-4.264v5.53h4.264v-5.53Zm12.793 0h-4.264v5.53h4.264v-5.53Zm12.774 0h-4.264v5.53h4.264v-5.53Zm12.792 0h-4.264v5.53h4.264v-5.53Zm12.793 0h-4.264v5.53h4.264v-5.53Z"/>
  <path fill="#263238" d="M627.342 291.616c0 .232-18.199.403-40.681.403-22.481 0-40.68-.171-40.68-.403s18.237-.356 40.68-.356c22.444 0 40.681.139 40.681.356Z"/>
  <path fill="#A020F0" d="M609.543 125.719h-45.916v9.99h45.916v-9.99Z"/>
  <path fill="#263238" d="M609.543 135.709a4.031 4.031 0 0 1 0-.712v-1.983c0-1.796-.095-4.243-.171-7.295l.305.248c-10.47.093-27.146.155-45.916.155.228-.17-.495.403.495-.403v9.975l-.495-.403c13.021 0 24.424.109 32.628.186l9.69.108h3.598a5.097 5.097 0 0 1-.838 0h-2.532l-9.518.124c-8.186.078-19.741.155-32.971.171h-.476v-10.362l.495-.403c18.77 0 35.446 0 45.916.155h.152v.248c0 3.098-.133 5.607-.171 7.434v1.921a2.497 2.497 0 0 1-.191.836Zm-15.8 116.66h-10.832v47.534h10.832v-47.534Z"/>
  <path fill="#ead2ef" d="M354.495 127.703c2.366.339 4.494 1.377 5.977 2.915 1.482 1.538 2.215 3.467 2.056 5.417v18.044h-43.783l.552-26.221 35.198-.155Z"/>
  <path fill="#263238" d="M354.495 127.702h-2.551l-7.12.124-25.509.263.419-.325c-.152 7.651-.304 16.604-.495 26.206l-.476-.402h43.746l-.419.356v-17.192a9.128 9.128 0 0 0-.628-4.167c-.823-1.869-2.51-3.402-4.702-4.274a24.988 24.988 0 0 0-2.418-.744c.22-.034.446-.034.667 0a12.48 12.48 0 0 1 1.903.496 9.789 9.789 0 0 1 3.064 1.747c.87.742 1.549 1.617 2 2.574a9.577 9.577 0 0 1 .742 4.306v17.533h-44.45v-.419c.229-9.602.438-18.586.61-26.206v-.341h34.969c.251.12.471.277.648.465Z"/>
  <path fill="#263238" d="M348.27 134.828a61.538 61.538 0 0 1-8.338 6.195 65.227 65.227 0 0 1-8.947 5.483 62.104 62.104 0 0 1 8.319-6.118 64.312 64.312 0 0 1 8.966-5.56Zm1.256 5.25a31.194 31.194 0 0 1-5.882 4.647 34.263 34.263 0 0 1-6.529 3.98 31.19 31.19 0 0 1 5.882-4.646 34.267 34.267 0 0 1 6.529-3.981Zm-49.114 42.314c-.266 0-.495-12.05-.495-26.919s.229-26.919.495-26.919c.267 0 .495 12.05.495 26.919s-.228 26.919-.495 26.919Z"/>
  <path fill="#263238" d="M361.12 182.392c0 .233-15.572.403-34.78.403-19.207 0-34.798-.17-34.798-.403 0-.232 15.572-.402 34.798-.402 19.227 0 34.78.186 34.78.402Zm0 4.337c0 .217-15.23.403-34.266.403-19.036 0-34.265-.186-34.265-.403 0-.217 15.229-.403 34.265-.403s34.266.186 34.266.403Zm0 4.166c0 .217-15.23.403-34.266.403-19.036 0-34.265-.186-34.265-.403 0-.216 15.229-.402 34.265-.402s34.266.186 34.266.402Z"/>
  <path fill="#A020F0" d="M677.636 93.58h-24.252v3.764h24.252v-3.763Z"/>
  <path fill="#263238" d="M744.055 687.672h-7.767V408.338h7.767v279.334Zm-7.291-.387h6.815v-278.56h-6.815v278.56Z"/>
  <path fill="#263238" d="M743.826 503.08h-7.291v1.549h7.291v-1.549Zm0 2.586h-7.291v1.549h7.291v-1.549Zm0 3.176h-7.291v.387h7.291v-.387Zm0 2.586h-7.291v.387h7.291v-.387Zm0 2.587h-7.291v.387h7.291v-.387Zm0 2.586h-7.291v.387h7.291v-.387Zm0 2.602h-7.291v.387h7.291v-.387Zm0 2.013h-7.291v1.549h7.291v-1.549Zm0 3.16h-7.291v.387h7.291v-.387Zm0 2.015h-7.291v1.548h7.291v-1.548Zm0 3.174h-7.291v.388h7.291v-.388Zm0 2.586h-7.291v.388h7.291v-.388Zm0 2.587h-7.291v.387h7.291v-.387Zm0 2.602h-7.291v.388h7.291v-.388Zm0 2.586h-7.291v.387h7.291v-.387Zm0 2.588h-7.291v.387h7.291v-.387Zm0 2.013h-7.291v1.549h7.291v-1.549Zm0 3.175h-7.291v.387h7.291v-.387Zm0 2.587h-7.291v.387h7.291v-.387Zm0 2.013h-7.291v1.549h7.291v-1.549Zm0 3.175h-7.291v.387h7.291v-.387Zm0 2.587h-7.291v.387h7.291v-.387Zm0 2.586h-7.291v.387h7.291v-.387Zm0 2.602h-7.291v.387h7.291v-.387Zm0 2.587h-7.291v.388h7.291v-.388Zm0 2.014h-7.291v1.548h7.291v-1.548Zm0 2.586h-7.291v1.549h7.291v-1.549Zm0 3.175h-7.291v.387h7.291v-.387Zm0 2.587h-7.291v.387h7.291v-.387Zm0 2.586h-7.291v.387h7.291v-.387Zm0 2.602h-7.291v.387h7.291v-.387Zm0 2.588h-7.291v.387h7.291v-.387Zm0 2.585h-7.291v.388h7.291v-.388Zm0 2.014h-7.291v1.549h7.291v-1.549Zm0 3.176h-7.291v.387h7.291v-.387Zm0 2.013h-7.291v1.549h7.291v-1.549Zm0 3.16h-7.291v.387h7.291v-.387Zm0 2.013h-7.291v1.549h7.291v-1.549Zm0 3.175h-7.291v.387h7.291v-.387Zm0 2.587h-7.291v.387h7.291v-.387Zm0 2.602h-7.291v.387h7.291v-.387Zm0 2.586h-7.291v.387h7.291v-.387Zm0 2.587h-7.291v.387h7.291v-.387Zm0 2.013h-7.291v1.549h7.291v-1.549Zm0 3.175h-7.291v.387h7.291v-.387Zm0 1.998h-7.291v1.549h7.291v-1.549Zm0 3.175h-7.291v.387h7.291v-.387Zm0 2.602h-7.291v.388h7.291v-.388Zm0 2.587h-7.291v.388h7.291v-.388Zm0 2.586h-7.291v.388h7.291v-.388Zm0 2.588h-7.291v.387h7.291v-.387Zm0 2.602h-7.291v.387h7.291v-.387Zm0 2.585h-7.291v.387h7.291v-.387Zm0 2.588h-7.291v.387h7.291v-.387Zm0 2.013h-7.291v1.549h7.291v-1.549Zm0 3.175h-7.291v.387h7.291v-.387Zm0 2.587h-7.291v.387h7.291v-.387Zm0 2.585h-7.291v.388h7.291v-.388Zm0 2.603h-7.291v.387h7.291v-.387Zm0 2.587h-7.291v.387h7.291v-.387Zm0 2.586h-7.291v.387h7.291v-.387Zm0 2.602h-7.291v.387h7.291v-.387Zm0 2.587h-7.291v.387h7.291v-.387Zm0 2.013h-7.291v1.549h7.291v-1.549Zm0 3.16h-7.291v.387h7.291v-.387Zm0 2.602h-7.291v.387h7.291v-.387Zm0 2.588h-7.291v.387h7.291v-.387Zm0 2.586h-7.291v.387h7.291v-.387Zm0 2.602h-7.291v.387h7.291v-.387Zm0 2.587h-7.291v.387h7.291v-.387Zm0-181.773h-7.291v1.549h7.291v-1.549Zm0-1.843h-7.291v.388h7.291v-.388Zm0-2.417h-7.291v.387h7.291v-.387Zm0-2.416h-7.291v.387h7.291v-.387Zm0-2.416h-7.291v.387h7.291v-.387Zm0-2.417h-7.291v.387h7.291v-.387Zm0-2.401h-7.291v.388h7.291v-.388Zm0-2.415h-7.291v.387h7.291v-.387Zm0-3.005h-7.291v1.549h7.291v-1.549Zm0-1.827h-7.291v.387h7.291v-.387Zm0-3.005h-7.291v1.549h7.291v-1.549Zm0-1.828h-7.291v.387h7.291v-.387Zm0-2.416h-7.291v.388h7.291v-.388Zm0-2.417h-7.291v.388h7.291v-.388Zm0-2.416h-7.291v.388h7.291v-.388Zm0-2.415h-7.291v.387h7.291v-.387Zm0-2.418h-7.291v.387h7.291v-.387Zm0-2.415h-7.291v.387h7.291v-.387Zm0-2.416h-7.291v.387h7.291v-.387Zm0-2.416h-7.291v.387h7.291v-.387Zm0-2.99h-7.291v1.549h7.291v-1.549Zm0-1.843h-7.291v.387h7.291v-.387Zm0-2.416h-7.291v.387h7.291v-.387Zm0-2.401h-7.291v.388h7.291v-.388Zm0-2.417h-7.291v.388h7.291v-.388Zm0-2.416h-7.291v.388h7.291v-.388Zm0-2.415h-7.291v.387h7.291v-.387Zm0-2.416h-7.291v.387h7.291v-.387Zm0-2.417h-7.291v.387h7.291v-.387Zm0-3.005h-7.291v1.549h7.291v-1.549Zm0-1.827h-7.291v.387h7.291v-.387Zm0-2.417h-7.291v.387h7.291v-.387Zm0-2.416h-7.291v.387h7.291v-.387Zm0-2.416h-7.291v.387h7.291v-.387Zm0-2.415h-7.291v.387h7.291v-.387Zm0-2.418h-7.291v.387h7.291v-.387Zm0-2.415h-7.291v.387h7.291v-.387Zm0-2.401h-7.291v.387h7.291v-.387Z"/>
  <path fill="#455A64" d="M722.41 688.059a.811.811 0 0 1-.5-.178.539.539 0 0 1-.205-.411c0-41.292-.114-91.722-.209-140.48-.095-48.758-.209-99.203-.209-140.511a.543.543 0 0 1 .218-.406.817.817 0 0 1 .505-.167.79.79 0 0 1 .498.168.524.524 0 0 1 .206.405c0 41.308.115 91.738.21 140.496.095 48.757.209 99.126.209 140.495a.495.495 0 0 1-.055.225.582.582 0 0 1-.157.191.758.758 0 0 1-.234.128.86.86 0 0 1-.277.045Z"/>
  <path fill="#455A64" d="M722.41 474.907a.797.797 0 0 1-.419-.109.58.58 0 0 1-.284-.385.508.508 0 0 1 .132-.436l38.168-41.958a.652.652 0 0 1 .2-.157.8.8 0 0 1 .54-.068.777.777 0 0 1 .437.267.497.497 0 0 1 .095.211.464.464 0 0 1-.012.225.534.534 0 0 1-.118.204l-38.168 41.973a.673.673 0 0 1-.25.174c-.1.04-.21.061-.321.059Zm0-22.35a.797.797 0 0 1-.419-.109.64.64 0 0 1-.188-.165.534.534 0 0 1-.095-.211.464.464 0 0 1 .013-.225.522.522 0 0 1 .118-.204l38.168-41.974a.652.652 0 0 1 .203-.152.81.81 0 0 1 .26-.078.88.88 0 0 1 .276.01.808.808 0 0 1 .251.096.586.586 0 0 1 .284.385.51.51 0 0 1-.132.436l-38.168 41.974a.682.682 0 0 1-.253.165.809.809 0 0 1-.318.052Zm0 46.031a.797.797 0 0 1-.419-.109.58.58 0 0 1-.284-.385.505.505 0 0 1 .132-.435l38.168-41.959a.685.685 0 0 1 .204-.152.852.852 0 0 1 .786.028.636.636 0 0 1 .186.166.476.476 0 0 1 .083.436.532.532 0 0 1-.117.204l-38.168 41.973a.662.662 0 0 1-.25.174.81.81 0 0 1-.321.059Zm0 23.681a.787.787 0 0 1-.419-.108.654.654 0 0 1-.188-.165.532.532 0 0 1-.095-.212.465.465 0 0 1 .013-.225.518.518 0 0 1 .118-.203l38.168-41.974a.676.676 0 0 1 .203-.152.842.842 0 0 1 .787.028.636.636 0 0 1 .186.166.477.477 0 0 1 .083.436.535.535 0 0 1-.117.203l-38.168 41.974a.673.673 0 0 1-.25.174c-.1.04-.21.06-.321.058Zm0 23.683a.797.797 0 0 1-.419-.109.654.654 0 0 1-.188-.165.532.532 0 0 1-.095-.212.465.465 0 0 1 .013-.225.525.525 0 0 1 .118-.203l38.168-41.974a.751.751 0 0 1 .463-.229.841.841 0 0 1 .527.105.576.576 0 0 1 .281.377.501.501 0 0 1-.129.429l-38.168 41.973a.673.673 0 0 1-.25.174c-.1.04-.21.06-.321.059Zm0 23.682a.806.806 0 0 1-.419-.108.657.657 0 0 1-.188-.166.528.528 0 0 1-.095-.211.464.464 0 0 1 .013-.225.522.522 0 0 1 .118-.204l38.168-42.036a.652.652 0 0 1 .203-.152.81.81 0 0 1 .536-.067c.091.018.176.05.251.096a.584.584 0 0 1 .284.384.51.51 0 0 1-.132.436l-38.168 42.021a.671.671 0 0 1-.25.173.81.81 0 0 1-.321.059Zm0 23.65a.843.843 0 0 1-.37-.091.662.662 0 0 1-.259-.234.5.5 0 0 1 .058-.604l38.168-41.974a.67.67 0 0 1 .203-.153.834.834 0 0 1 .536-.067.808.808 0 0 1 .251.096.586.586 0 0 1 .284.385.51.51 0 0 1-.132.436l-38.168 42.005a.716.716 0 0 1-.257.155.829.829 0 0 1-.314.046Zm0 23.728a.843.843 0 0 1-.37-.091.662.662 0 0 1-.259-.234.5.5 0 0 1 .058-.604l38.168-41.974a.67.67 0 0 1 .203-.153.834.834 0 0 1 .536-.067.808.808 0 0 1 .251.096.586.586 0 0 1 .284.385.51.51 0 0 1-.132.436l-38.168 41.958a.673.673 0 0 1-.248.181.837.837 0 0 1-.323.067Zm0 23.683a.857.857 0 0 1-.37-.092.66.66 0 0 1-.259-.233.503.503 0 0 1-.074-.309.527.527 0 0 1 .132-.296l38.168-41.973a.626.626 0 0 1 .199-.194.823.823 0 0 1 .282-.108.878.878 0 0 1 .594.103.657.657 0 0 1 .203.192.501.501 0 0 1 .037.493.589.589 0 0 1-.173.211l-38.168 41.973a.662.662 0 0 1-.25.174.81.81 0 0 1-.321.059Zm.4 22.195a.767.767 0 0 1-.419-.124.64.64 0 0 1-.188-.165.519.519 0 0 1-.095-.212.465.465 0 0 1 .013-.225.525.525 0 0 1 .118-.203l37.768-40.487a.813.813 0 0 1 .457-.163.848.848 0 0 1 .478.117.594.594 0 0 1 .271.34.494.494 0 0 1-.064.403l-37.768 40.487a.671.671 0 0 1-.25.173.81.81 0 0 1-.321.059Z"/>
  <path fill="#455A64" d="M760.921 688.058H722.41a.8.8 0 0 1-.373-.087.613.613 0 0 1-.255-.238.498.498 0 0 1-.106-.302c0-.107.037-.212.106-.302l38.168-41.958a.69.69 0 0 1 .209-.171V407.423a.485.485 0 0 1 .017-.253.561.561 0 0 1 .146-.223.716.716 0 0 1 .247-.153.866.866 0 0 1 .608 0c.095.035.18.088.247.153a.561.561 0 0 1 .146.223.485.485 0 0 1 .017.253V687.47a.533.533 0 0 1-.191.4.803.803 0 0 1-.475.188Zm-37.083-1.162h36.455v-40.022l-36.455 40.022Z"/>
  <path fill="#455A64" d="M760.921 471.638a.875.875 0 0 1-.319-.062.717.717 0 0 1-.252-.171l-38.72-42.082a.492.492 0 0 1-.064-.402.596.596 0 0 1 .271-.341.846.846 0 0 1 .478-.117.82.82 0 0 1 .457.163l38.72 42.082c.115.124.166.28.141.433a.577.577 0 0 1-.274.388.868.868 0 0 1-.438.109Zm0-22.675a.848.848 0 0 1-.322-.069.702.702 0 0 1-.249-.178l-38.073-42.609a.49.49 0 0 1-.063-.408.599.599 0 0 1 .281-.342.86.86 0 0 1 .487-.109.81.81 0 0 1 .456.177l38.168 42.609a.54.54 0 0 1 .114.206.468.468 0 0 1 .008.226.509.509 0 0 1-.101.211.635.635 0 0 1-.192.162.784.784 0 0 1-.514.124Zm0 46.745a.848.848 0 0 1-.322-.069.692.692 0 0 1-.249-.179l-38.073-42.609a.488.488 0 0 1-.063-.407.599.599 0 0 1 .281-.342.851.851 0 0 1 .943.068l38.168 42.609a.54.54 0 0 1 .115.209.472.472 0 0 1 .008.23.541.541 0 0 1-.1.215.686.686 0 0 1-.194.167.92.92 0 0 1-.514.108Zm0 24.022a.821.821 0 0 1-.32-.061.691.691 0 0 1-.251-.171l-38.72-43.244a.508.508 0 0 1-.123-.428.577.577 0 0 1 .275-.377.874.874 0 0 1 .535-.102.793.793 0 0 1 .474.225l38.72 43.244a.526.526 0 0 1 .114.206.468.468 0 0 1 .008.226.509.509 0 0 1-.101.211.756.756 0 0 1-.611.271Zm0 23.992a.868.868 0 0 1-.322-.069.704.704 0 0 1-.249-.179l-38.073-42.609a.49.49 0 0 1-.063-.408.597.597 0 0 1 .281-.341.843.843 0 0 1 .487-.109.795.795 0 0 1 .456.177l38.168 42.608a.543.543 0 0 1 .115.21.472.472 0 0 1 .008.23.531.531 0 0 1-.1.214.656.656 0 0 1-.194.167.92.92 0 0 1-.514.109Zm-.001 24.1a.835.835 0 0 1-.319-.061.677.677 0 0 1-.252-.172l-38.129-42.608a.546.546 0 0 1-.116-.21.483.483 0 0 1-.008-.23.52.52 0 0 1 .101-.214.645.645 0 0 1 .194-.167.776.776 0 0 1 .253-.093.864.864 0 0 1 .537.075.667.667 0 0 1 .2.157l38.13 42.655a.54.54 0 0 1 .114.206.468.468 0 0 1 .007.226.52.52 0 0 1-.1.211.656.656 0 0 1-.193.163.783.783 0 0 1-.419.062Zm.001 24.053a.849.849 0 0 1-.322-.07.702.702 0 0 1-.249-.178l-38.073-42.609a.49.49 0 0 1-.063-.408.602.602 0 0 1 .281-.342.85.85 0 0 1 .487-.108.795.795 0 0 1 .456.177l38.168 42.608a.543.543 0 0 1 .115.21.471.471 0 0 1 .008.23.531.531 0 0 1-.1.214.67.67 0 0 1-.194.167.929.929 0 0 1-.514.109Zm-.001 24.039a.834.834 0 0 1-.319-.06.701.701 0 0 1-.252-.172L722.22 573.15a.515.515 0 0 1-.115-.206.467.467 0 0 1-.007-.226.516.516 0 0 1 .1-.21.642.642 0 0 1 .193-.163.817.817 0 0 1 .789-.034c.08.041.148.095.201.158l38.13 42.5a.54.54 0 0 1 .114.206.467.467 0 0 1 .007.226.52.52 0 0 1-.1.211.656.656 0 0 1-.193.163.73.73 0 0 1-.419.139Zm.001 24.052a.789.789 0 0 1-.325-.063.64.64 0 0 1-.246-.184l-38.073-42.609a.49.49 0 0 1-.063-.408.599.599 0 0 1 .281-.342.86.86 0 0 1 .487-.109.81.81 0 0 1 .456.177l38.168 42.609a.536.536 0 0 1 .115.21.468.468 0 0 1 .008.229.529.529 0 0 1-.1.215.686.686 0 0 1-.194.167.771.771 0 0 1-.514.108Zm-.001 24.039a.834.834 0 0 1-.319-.06.701.701 0 0 1-.252-.172l-38.129-42.609a.529.529 0 0 1-.115-.206.467.467 0 0 1-.007-.226.526.526 0 0 1 .1-.211.639.639 0 0 1 .193-.162.817.817 0 0 1 .789-.034c.08.041.148.094.201.158l38.168 42.608a.54.54 0 0 1 .114.206.467.467 0 0 1 .007.226.507.507 0 0 1-.1.211.656.656 0 0 1-.193.163.759.759 0 0 1-.457.108Zm.001 24.054a.86.86 0 0 1-.32-.061.681.681 0 0 1-.251-.172l-38.073-42.624a.49.49 0 0 1-.063-.408.597.597 0 0 1 .281-.341.843.843 0 0 1 .487-.109.795.795 0 0 1 .456.177l38.168 42.608a.543.543 0 0 1 .115.21.471.471 0 0 1 .008.23.531.531 0 0 1-.1.214.67.67 0 0 1-.194.167.696.696 0 0 1-.243.099.796.796 0 0 1-.271.01Zm-31.982-323.492-17.685-12.901c-38.681 0-78.049 0-117.511.108-39.462.108-79.077.093-117.892.093v-1.549c38.815 0 78.354 0 117.892-.093 39.539-.093 79.077-.108 117.873-.108h.362l18.218 13.227-1.257 1.223Z"/>
  <path fill="#455A64" d="M452.094 368.841a1.108 1.108 0 0 1-.398-.064.94.94 0 0 1-.325-.199.74.74 0 0 1-.186-.26.626.626 0 0 1 .052-.588.79.79 0 0 1 .229-.236l23.758-16.913c.178-.13.408-.202.647-.202.239 0 .469.072.647.202l21.435 16.417 21.987-16.433c.179-.134.413-.208.657-.208a1.1 1.1 0 0 1 .656.208l20.712 16.418 23.11-16.433c.173-.132.401-.206.638-.206s.465.074.637.206l21.626 16.433 22.843-16.449c.173-.132.401-.205.638-.205s.465.073.638.205l21.092 16.433 22.844-16.448c.178-.13.408-.202.647-.202.239 0 .469.072.647.202l20.94 16.402 21.625-16.402c.173-.132.401-.206.638-.206s.465.074.638.206l23.396 16.913c.089.072.16.158.208.252a.656.656 0 0 1 0 .596.788.788 0 0 1-.208.252 1.076 1.076 0 0 1-.667.221c-.249 0-.488-.079-.666-.221l-22.748-16.449-21.645 16.619a1.08 1.08 0 0 1-.657.214c-.244 0-.479-.077-.656-.214l-20.94-16.418-22.882 16.418c-.175.128-.402.2-.638.2-.235 0-.463-.072-.637-.2l-21.093-16.433-22.729 16.433a1.057 1.057 0 0 1-.638.205c-.237 0-.465-.073-.637-.205l-21.645-16.433-23.129 16.433c-.178.13-.408.201-.647.201-.239 0-.469-.071-.647-.201L520.568 352.3l-21.987 16.402a1.08 1.08 0 0 1-.647.207 1.08 1.08 0 0 1-.647-.207l-21.454-16.433-23.11 16.433a1.2 1.2 0 0 1-.629.139Z"/>
  <path fill="#263238" d="M826.044 391.874h39.843V353.71h-39.843v38.164Z"/>
  <path fill="#263238" d="M853.037 391.934c-.285 0-.495-8.55-.495-19.082s.21-19.097.495-19.097c.286 0 .495 8.549.495 19.097 0 10.548-.228 19.082-.495 19.082Zm-15.342 0c-.267 0-.495-8.55-.495-19.082s.228-19.097.495-19.097c.266 0 .495 8.549.495 19.097 0 10.548-.229 19.082-.495 19.082Z"/>
  <path fill="#455A64" d="M869.618 369.152h-418v-5.561h418v5.561Zm-417.048-.775h416.096v-4.011H452.57v4.011Z"/>
  <path fill="#455A64" d="M729.568 369.152a.603.603 0 0 1-.225-.046.481.481 0 0 1-.175-.125.347.347 0 0 1-.073-.141.305.305 0 0 1 0-.153.357.357 0 0 1 .072-.141.459.459 0 0 1 .134-.107l22.101-12.127a.57.57 0 0 1 .535-.001.456.456 0 0 1 .132.109.348.348 0 0 1 .072.137c.012.05.012.1-.001.15a.336.336 0 0 1-.072.137.43.43 0 0 1-.133.103l-22.101 12.127a.585.585 0 0 1-.266.078Z"/>
  <path fill="#455A64" d="M729.568 369.058a.537.537 0 0 1-.179-.046.47.47 0 0 1-.142-.099.37.37 0 0 1-.085-.136.315.315 0 0 1-.013-.152l4.968-31.473a.38.38 0 0 1 0-.201v-.078l3.122-19.825 1.028-6.458 2.189-13.816a.37.37 0 0 1 .158-.244.542.542 0 0 1 .318-.097h1.904a.542.542 0 0 1 .318.097.367.367 0 0 1 .158.244l.971 6.195 1.18 7.528 1.009 6.458 8.109 51.747a.34.34 0 0 1-.045.221.448.448 0 0 1-.183.166.574.574 0 0 1-.257.059.57.57 0 0 1-.257-.059l-21.835-12.266-1.903 11.988a.443.443 0 0 1-.214.199.587.587 0 0 1-.319.048Zm3.807-12.39 20.026 11.26-3.484-22.273h-15.229l16.6 10.641a.366.366 0 0 1 .171.195.294.294 0 0 1-.019.239.397.397 0 0 1-.169.181.533.533 0 0 1-.268.066l-17.628-.309Zm-1.314-.79 17.59.31-16.01-10.331-1.58 10.021Zm1.733-10.997h14.867l-13.744-7.156-1.123 7.156Zm2.341-7.373 13.592 7.001-1.104-7.001h-12.488Zm-1.066-.774h12.336l-11.422-6.04-.914 6.04Zm2.189-6.319 11.194 5.947-.933-5.947h-10.261Zm-1.066-.775h10.261l-9.385-5.576-.876 5.576Zm1.904-5.885 9.175 5.452-.856-5.452h-8.319Zm-.914-.775h8.3l-7.5-5.08-.8 5.08Zm1.751-5.436 7.272 4.91-.78-4.957-6.492.047Zm0-6.01-.818 5.235h6.606l-5.788-5.235Zm.724-.495 5.482 4.894-.78-4.91-4.702.016Zm.419-6.784-.952 6.009h4.873l-3.921-6.009Zm.533-.852 3.369 5.173-.799-5.111-2.57-.062Zm-.267-.79h2.703l-.856-5.467h-.933l-.914 5.467Z"/>
  <path fill="#455A64" d="M738.686 311.038h-.228a.452.452 0 0 1-.143-.097.36.36 0 0 1-.087-.134.324.324 0 0 1 .04-.295l4.968-7.636a.534.534 0 0 1 .286-.14.598.598 0 0 1 .33.04c.101.044.18.115.224.201.044.086.05.182.017.271l-4.988 7.62a.462.462 0 0 1-.182.13.556.556 0 0 1-.237.04Zm-1.028 6.553a.468.468 0 0 1-.167-.026.379.379 0 0 1-.137-.083.388.388 0 0 1-.107-.123.313.313 0 0 1 0-.296.388.388 0 0 1 .107-.123l7.214-6.443a.539.539 0 0 1 .334-.111c.124 0 .244.04.333.111a.39.39 0 0 1 .107.127.325.325 0 0 1 0 .303.39.39 0 0 1-.107.127l-7.196 6.444a.574.574 0 0 1-.179.077.65.65 0 0 1-.202.016Zm-.932 6.195a.553.553 0 0 1-.271-.071.406.406 0 0 1-.172-.184.318.318 0 0 1-.013-.231.385.385 0 0 1 .151-.195l9.176-6.196a.527.527 0 0 1 .514-.086c.057.02.109.049.152.086.087.073.136.17.136.271a.353.353 0 0 1-.136.271l-9.176 6.196a.505.505 0 0 1-.163.099.602.602 0 0 1-.198.04Zm-1.048 6.645a.579.579 0 0 1-.223-.038.453.453 0 0 1-.176-.117.355.355 0 0 1-.077-.139.332.332 0 0 1 .062-.293.421.421 0 0 1 .129-.11l11.212-6.66a.573.573 0 0 1 .328-.032c.11.021.208.074.274.149a.334.334 0 0 1-.05.502l-11.212 6.676a.524.524 0 0 1-.267.062Zm-1.122 7.092a.52.52 0 0 1-.219-.044.418.418 0 0 1-.162-.126.347.347 0 0 1-.073-.141.305.305 0 0 1 0-.153.35.35 0 0 1 .072-.141.443.443 0 0 1 .134-.107l13.325-7.079a.587.587 0 0 1 .322-.012.477.477 0 0 1 .257.157.333.333 0 0 1 .076.255.36.36 0 0 1-.141.235l-13.325 7.094a.512.512 0 0 1-.266.062Zm-1.277 8.148a.545.545 0 0 1-.288-.074.4.4 0 0 1-.175-.2.314.314 0 0 1 .008-.246.413.413 0 0 1 .189-.192l15.8-8.147a.594.594 0 0 1 .364-.047.503.503 0 0 1 .302.171.31.31 0 0 1 .064.29.36.36 0 0 1-.078.136.426.426 0 0 1-.138.1l-15.8 8.163a.737.737 0 0 1-.248.046Zm-1.541 10.919a.578.578 0 0 1-.215-.05.466.466 0 0 1-.166-.121.355.355 0 0 1-.076-.138.326.326 0 0 1 .061-.294.462.462 0 0 1 .129-.11l18.37-10.842a.582.582 0 0 1 .357-.066.562.562 0 0 1 .174.055.473.473 0 0 1 .136.104.335.335 0 0 1 .081.29.357.357 0 0 1-.067.142.433.433 0 0 1-.129.11l-18.37 10.842a.551.551 0 0 1-.285.078Z"/>
  <path fill="#455A64" d="M741.789 384.888a.555.555 0 0 1-.331-.118.373.373 0 0 1-.145-.269v-88.78a.373.373 0 0 1 .145-.269.539.539 0 0 1 .668-.005.357.357 0 0 1 .139.274v88.78c0 .103-.05.201-.139.274a.539.539 0 0 1-.337.113Z"/>
  <path fill="#263238" d="M746.129 399.833h11.231v-31.085h-11.231v31.085Z"/>
  <path fill="#263238" d="M719.879 400.236h30.325v-16.34h-30.325v16.34Zm36.835 0h9.518v-12.902h-9.518v12.902Zm-39.691 10.702h48.676v-5.808h-48.676v5.808Z"/>
  <path fill="#263238" d="M722.258 402.731h39.215v-3.222h-39.215v3.222Z"/>
  <path fill="#263238" d="M724.256 405.132h35.122v-2.958h-35.122v2.958Z"/>
  <path fill="#455A64" d="M760.94 485.903h-38.739v3.098h38.739v-3.098Zm0 69.823h-38.53v3.097h38.53v-3.097Zm0 73.539h-38.53v3.097h38.53v-3.097Zm101.958-271.528-121.299-60.901-198.226 54.628-.304-.728 198.644-54.752.19.093 121.509 60.994-.514.666Z"/>
  <path fill="#455A64" d="M869.39 363.917h-.476v-6.319H755.99v6.319h-.476v-6.707H869.39v6.707Z"/>
  <path fill="#455A64" d="M863.393 357.412h-.476v6.35h.476v-6.35Zm-5.12 0h-.476v6.35h.476v-6.35Zm-5.121 0h-.476v6.35h.476v-6.35Zm-5.121 0h-.476v6.35h.476v-6.35Zm-5.121 0h-.476v6.35h.476v-6.35Zm-5.121 0h-.476v6.35h.476v-6.35Zm-5.121 0h-.476v6.35h.476v-6.35Zm-5.12 0h-.476v6.35h.476v-6.35Zm-5.121 0h-.476v6.35h.476v-6.35Zm-5.121 0h-.475v6.35h.475v-6.35Zm-5.102 0h-.475v6.35h.475v-6.35Zm-5.12 0h-.476v6.35h.476v-6.35Zm-5.121 0h-.476v6.35h.476v-6.35Zm-5.121 0h-.476v6.35h.476v-6.35Zm-5.12 0h-.476v6.35h.476v-6.35Zm-5.122 0h-.475v6.35h.475v-6.35Zm-5.12 0h-.476v6.35h.476v-6.35Zm-5.121 0h-.476v6.35h.476v-6.35Zm-5.12 0h-.476v6.35h.476v-6.35Zm-5.121 0h-.476v6.35h.476v-6.35Zm-5.121 0h-.476v6.35h.476v-6.35Zm22.139 11.352h10.356v-4.77h-10.356v4.77Zm-22.082 0h10.356v-4.77h-10.356v4.77Zm-58.385 0h10.356v-4.77h-10.356v4.77Zm-29.735 0h10.356v-4.77h-10.356v4.77Zm-29.734 0h10.356v-4.77H643.2v4.77Zm-29.734 0h10.355v-4.77h-10.355v4.77Zm-29.736 0h10.356v-4.77H583.73v4.77Zm-29.753 0h10.356v-4.77h-10.356v4.77Zm-29.736 0h10.356v-4.77h-10.356v4.77Zm-29.734 0h10.356v-4.77h-10.356v4.77Z"/>
  <path fill="#A020F0" d="M464.772 368.764h10.356v-4.77h-10.356v4.77Z"/>
  <path fill="#455A64" d="M805.808 368.764h10.356v-4.77h-10.356v4.77Zm22.711 0h10.356v-4.77h-10.356v4.77Zm22.672 0h10.356v-4.77h-10.356v4.77ZM743.004 296.36l-.557.628 103.213 60.7.558-.628-103.214-60.7Z"/>
  <path fill="#263238" d="M451.371 373.938c2.386 0 4.321-1.575 4.321-3.516 0-1.942-1.935-3.516-4.321-3.516-2.387 0-4.322 1.574-4.322 3.516 0 1.941 1.935 3.516 4.322 3.516Zm13.402-3.517c.003.695.26 1.373.737 1.949.477.576 1.153 1.024 1.943 1.288a5.25 5.25 0 0 0 2.495.194c.837-.137 1.606-.474 2.208-.966.602-.492 1.012-1.119 1.177-1.8a2.91 2.91 0 0 0-.249-2.029c-.327-.642-.881-1.19-1.591-1.576a5.05 5.05 0 0 0-2.399-.591 5.18 5.18 0 0 0-1.658.269 4.482 4.482 0 0 0-1.405.766 3.557 3.557 0 0 0-.935 1.146 2.946 2.946 0 0 0-.323 1.35Z"/>
  <path fill="#455A64" d="M475.851 363.033h-24.48v6.366h24.48v-6.366Z"/>
  <path fill="#E0E0E0" d="M711.445 698.467h61.945v-13.568h-61.945v13.568Z"/>
  <path fill="#fff" d="M711.445 693.263h61.945v-3.315h-61.945v3.315Z"/>
  <path fill="#A020F0" d="m773.389 689.933-1.656 3.33h-3.198l1.866-3.33h2.988Zm-6.262 0-1.676 3.33h-3.179l1.866-3.33h2.989Zm-6.263 0-1.676 3.33h-3.179l1.866-3.33h2.989Zm-6.282 0-1.656 3.33h-3.179l1.846-3.33h2.989Zm-6.263 0-1.657 3.33h-3.179l1.847-3.33h2.989Zm-6.263 0-1.656 3.33h-3.198l1.865-3.33h2.989Zm-6.263 0-1.675 3.33h-3.18l1.866-3.33h2.989Zm-6.263 0-1.675 3.33h-3.179l1.846-3.33h3.008Zm-6.282 0-1.656 3.33h-3.179l1.846-3.33h2.989Zm-6.263 0-1.656 3.33h-3.198l1.865-3.33h2.989Z"/>
  <path fill="#263238" d="M711.046 689.979c0-.217 13.973-.402 31.219-.402 17.247 0 31.22.185 31.22.402 0 .217-13.973.403-31.22.403-17.246 0-31.219-.17-31.219-.403Zm0 3.469c0-.232 13.973-.403 31.219-.403 17.247 0 31.22.171 31.22.403s-13.973.403-31.22.403c-17.246 0-31.219-.186-31.219-.403Z"/>
  <path fill="#455A64" d="M739.847 297.951h3.636v-2.958h-3.636v2.958Zm-14.01 70.751c-1.36.208-2.581.812-3.435 1.698-.854.886-1.284 1.994-1.21 3.119v10.408h25.243l-.324-15.132-20.274-.093Z"/>
  <path fill="#263238" d="M725.837 368.702c.47-.072.949-.103 1.428-.093l4.111-.077 14.735-.078h.418v.248c.134 4.43.248 9.587.4 15.117v.418h-26.194v-10.269a5.464 5.464 0 0 1 .457-2.509 4.455 4.455 0 0 1 1.179-1.504 5.637 5.637 0 0 1 1.81-1.005 3.647 3.647 0 0 1 1.504-.279s-.514.124-1.39.48c-1.228.513-2.167 1.389-2.627 2.447a5.219 5.219 0 0 0-.343 2.37v9.928l-.419-.356h25.243l-.495.403c0-5.53-.172-10.687-.248-15.117l.419.325-14.715-.201-4.112-.124a6.25 6.25 0 0 1-1.161-.124Z"/>
  <path fill="#263238" d="M729.416 372.761c3.728 1.799 7.093 4.056 9.975 6.691a21.767 21.767 0 0 1-5.312-3.098 20.561 20.561 0 0 1-4.663-3.593Zm-.724 3.051c.171-.171 1.903.805 3.902 2.168s3.446 2.618 3.255 2.788c-.19.17-1.903-.79-3.902-2.168-1.999-1.379-3.446-2.618-3.255-2.788Z"/>
  <path fill="#455A64" d="M757.037 400.236c-.5-5.152-.665-10.322-.495-15.488a119.58 119.58 0 0 1 .495-15.489c.489 5.153.654 10.322.495 15.489a123.62 123.62 0 0 1-.495 15.488Z"/>
  <path fill="#455A64" d="M721.992 400.236c0-.217 9.004-.403 20.083-.403 11.079 0 20.083.186 20.083.403 0 .217-8.985.403-20.083.403-11.098 0-20.083-.186-20.083-.403Zm0 2.541c0-.217 8.852-.402 19.74-.402 10.889 0 19.741.185 19.741.402-6.567.409-13.156.543-19.741.403-6.584.14-13.173.005-19.74-.403Zm0 2.369a237.125 237.125 0 0 1 19.74-.403c6.585-.14 13.174-.006 19.741.403 0 .217-8.833.403-19.741.403-10.907 0-19.74-.186-19.74-.403Zm-182.635-53.992h13.992v-2.168h-13.992v2.168Z"/>
  <path fill="#A020F0" d="M140.202 661.791h-73.48v37.11h73.48v-37.11Z"/>
  <path fill="#455A64" d="M213.702 679.169h-73.48v19.733h73.48v-19.733Z"/>
  <path fill="#A020F0" d="M557.86 659.205h-73.481v39.403h73.481v-39.403Z"/>
  <path fill="#455A64" d="M631.359 678.859h-73.48v19.733h73.48v-19.733Zm-48.333-39.402h-73.481v19.732h73.481v-19.732Z"/>
  <path fill="#263238" d="M631.359 659.205h-73.48v19.732h73.48v-19.732Z"/>
</svg>
