<svg xmlns="http://www.w3.org/2000/svg" width="1000" height="1000" fill="none" viewBox="0 0 1000 1000">
  <path fill="#BA68C8" d="M970.418 387.926C859.412 193.682 558.305 262.859 496.813 168.39c-31.498-48.306-66.731-104.452-117.838-133.607C330.259 6.86 273.778-2.935 224.538.74 48.693 13.888-25.85 174.625 7.926 351.139 53.02 586.592 257.31 827.117 500 828.792c126.948.977 248.247-45.559 343.219-111.013l2.118-1.466c94.971-66.059 209.852-180.097 125.08-328.387Z"/>
  <path fill="#fff" d="M970.418 387.926C859.412 193.682 558.305 262.859 496.813 168.39c-31.498-48.306-66.731-104.452-117.838-133.607C330.259 6.86 273.778-2.935 224.538.74 48.693 13.888-25.85 174.625 7.926 351.139 53.02 586.592 257.31 827.117 500 828.792c126.948.977 248.247-45.559 343.219-111.013l2.118-1.466c94.971-66.059 209.852-180.097 125.08-328.387Z" opacity=".7"/>
  <path stroke="#263238" stroke-dasharray="4.41 4.41" stroke-linecap="round" stroke-linejoin="round" stroke-width="1.103" d="M108.705 402.052H96.361c-13.247 0-25.95 5.376-35.317 14.945-9.367 9.57-14.629 22.549-14.629 36.082v280.012c0 13.533 5.262 26.512 14.629 36.081 9.367 9.57 22.07 14.946 35.317 14.946h169.354c13.247 0 25.95-5.376 35.317-14.946 9.367-9.569 14.629-22.548 14.629-36.081m-13.802-595.252V82.53c0-8.276 3.213-16.213 8.935-22.072 5.721-5.858 13.483-9.159 21.584-9.177h220.233c8.112 0 15.892 3.292 21.628 9.153 5.736 5.86 8.959 13.808 8.959 22.096"/>
  <path fill="#BA68C8" d="M500.001 1000c240.899 0 436.186-27.877 436.186-62.266 0-34.389-195.287-62.266-436.186-62.266-240.899 0-436.186 27.877-436.186 62.266 0 34.389 195.287 62.266 436.186 62.266Z"/>
  <path fill="#fff" d="M500.001 1000c240.899 0 436.186-27.877 436.186-62.266 0-34.389-195.287-62.266-436.186-62.266-240.899 0-436.186 27.877-436.186 62.266 0 34.389 195.287 62.266 436.186 62.266Z" opacity=".5"/>
  <path fill="#fff" stroke="#263238" stroke-linecap="round" stroke-linejoin="round" stroke-width="1.103" d="M911.18 212.041v418.97c0 13.696-5.324 26.831-14.801 36.518-9.477 9.687-22.331 15.132-35.737 15.138H139.36c-13.406-.006-26.26-5.451-35.737-15.138-9.477-9.687-14.8-22.822-14.8-36.518v-418.97c0-1.233 0-2.327.159-3.63.888-13.033 6.58-25.237 15.93-34.15s21.66-13.872 34.448-13.876h721.282c12.803.006 25.126 4.977 34.477 13.91 9.352 8.932 15.036 21.159 15.902 34.209.113 1.117.159 2.327.159 3.537Z"/>
  <path fill="#263238" d="M113.419 227.771h775.738v387.022c0 12.836-4.991 25.147-13.875 34.223-8.884 9.077-20.934 14.176-33.497 14.176H160.814c-12.564 0-24.613-5.099-33.497-14.176-8.884-9.076-13.875-21.387-13.875-34.223V227.771h-.023Z"/>
  <path fill="#fff" d="M889.179 227.771v387.022c.067 12.765-4.831 25.033-13.616 34.109s-20.738 14.216-33.232 14.29H160.267c-12.493-.074-24.447-5.214-33.232-14.29-8.785-9.076-13.683-21.344-13.616-34.109V227.771h775.76Z" opacity=".2"/>
  <path fill="#BA68C8" stroke="#263238" stroke-miterlimit="10" stroke-width="1.103" d="M911.021 208.504H88.981c.889-13.033 6.582-25.237 15.931-34.15 9.35-8.913 21.66-13.872 34.448-13.876h721.282c12.788.004 25.098 4.963 34.448 13.876 9.35 8.913 15.043 21.117 15.931 34.15Z"/>
  <path fill="#263238" d="M189.989 184.398a9.283 9.283 0 0 1-1.509 5.08 8.988 8.988 0 0 1-4.017 3.368 8.772 8.772 0 0 1-5.171.52 8.888 8.888 0 0 1-4.583-2.502 9.21 9.21 0 0 1-2.45-4.682 9.33 9.33 0 0 1 .51-5.284 9.101 9.101 0 0 1 3.296-4.104 8.824 8.824 0 0 1 4.973-1.541c2.374 0 4.65.964 6.329 2.679a9.241 9.241 0 0 1 2.622 6.466Zm37.851 0a9.29 9.29 0 0 1-1.508 5.08 8.998 8.998 0 0 1-4.017 3.368 8.773 8.773 0 0 1-5.171.52 8.884 8.884 0 0 1-4.583-2.502 9.21 9.21 0 0 1-2.45-4.682 9.33 9.33 0 0 1 .51-5.284 9.101 9.101 0 0 1 3.296-4.104 8.824 8.824 0 0 1 4.973-1.541c2.374 0 4.65.964 6.329 2.679a9.245 9.245 0 0 1 2.621 6.466Zm28.902 9.144c4.943 0 8.95-4.094 8.95-9.144 0-5.051-4.007-9.145-8.95-9.145s-8.951 4.094-8.951 9.145c0 5.05 4.008 9.144 8.951 9.144Z"/>
  <path stroke="#263238" stroke-miterlimit="10" stroke-width="1.103" d="M889.157 227.771v387.022c0 12.836-4.991 25.147-13.875 34.223-8.884 9.077-20.933 14.176-33.497 14.176H160.814c-10.966-.002-21.591-3.891-30.063-11.003-8.473-7.111-14.268-17.006-16.398-27.995v-.14a49.912 49.912 0 0 1-.866-9.307V227.771h775.67Z"/>
  <path fill="#263238" d="M888.428 287.617a47.166 47.166 0 0 0-10.522-4.444l-4.259-19.429h-18.083l-4.214 19.429a45.575 45.575 0 0 0-10.567 4.444l-16.33-10.68-12.777 13.007 10.272 16.683a47.895 47.895 0 0 0-4.35 10.797l-19.017 4.305v18.475l19.017 4.351a47.091 47.091 0 0 0 4.35 10.843l-10.454 16.8 12.8 13.053 16.42-10.68a45.919 45.919 0 0 0 10.545 4.468l4.236 19.405h18.015l4.236-19.405a46.785 46.785 0 0 0 10.523-4.468l.842.559v-87.978l-.683.465Zm-23.777 67.478c-4.623 0-9.141-1.4-12.984-4.025a23.768 23.768 0 0 1-8.607-10.717 24.35 24.35 0 0 1-1.325-13.797 24.037 24.037 0 0 1 6.401-12.223 23.211 23.211 0 0 1 11.97-6.528 22.9 22.9 0 0 1 13.503 1.368 23.483 23.483 0 0 1 10.482 8.803 24.238 24.238 0 0 1 3.927 13.269c0 3.134-.605 6.238-1.779 9.133a23.899 23.899 0 0 1-5.066 7.74 23.342 23.342 0 0 1-7.582 5.169 22.897 22.897 0 0 1-8.94 1.808Zm-302.133-48.747v-38.951l-40.084-9.098a107.17 107.17 0 0 0-9.11-22.733l4.851-7.795H328.916l4.668 7.585a101.324 101.324 0 0 0-9.11 22.71l-40.106 9.121v39.045l40.106 9.144a102.835 102.835 0 0 0 9.11 22.896l-22.023 35.391 26.988 27.55 34.618-22.524a99.871 99.871 0 0 0 22.251 9.424l8.928 40.836h38.034l8.974-40.929a100.463 100.463 0 0 0 22.183-9.424l34.64 22.524 26.966-27.55-21.887-35.391a108.002 108.002 0 0 0 9.11-22.686l40.152-9.145Zm-138.927 30.854c-9.743 0-19.267-2.952-27.369-8.482-8.101-5.53-14.415-13.391-18.143-22.587a51.347 51.347 0 0 1-2.804-29.079c1.901-9.763 6.593-18.731 13.482-25.77 6.89-7.039 15.668-11.832 25.223-13.774a48.297 48.297 0 0 1 28.463 2.864c9.001 3.809 16.695 10.26 22.108 18.537s8.302 18.007 8.302 27.961a51.242 51.242 0 0 1-3.744 19.264 50.392 50.392 0 0 1-10.678 16.332 49.171 49.171 0 0 1-15.985 10.909 48.337 48.337 0 0 1-18.855 3.825ZM309.557 573.817l1.617-30.924-31.361-9.028a87.832 87.832 0 0 0-6.423-18.382l18.949-27.178-20.315-23.012-28.378 16.288a82.403 82.403 0 0 0-17.286-8.447l-5.42-32.855-30.246-1.419-8.745 32.134a78.582 78.582 0 0 0-17.992 6.515l-26.579-19.336-22.57 20.732 16.079 29.016a82.232 82.232 0 0 0-8.29 17.637l-9.11 1.536v41.883l6.651 1.908a81.632 81.632 0 0 0 6.354 18.405l-13.073 18.731.865 16.032v.14l13.506 15.287 28.423-16.404a78.232 78.232 0 0 0 17.332 8.539l5.329 31.552.251 1.326 30.245 1.629.797-2.955 7.948-29.155a79.807 79.807 0 0 0 18.084-6.515l26.533 19.312 22.547-20.708-15.943-29.039a81.183 81.183 0 0 0 8.177-17.614l32.044-5.631Zm-80.327-48.282c-5.181-5.888-11.955-10.073-19.464-12.027a38.39 38.39 0 0 0-22.724 1.051c-7.306 2.639-13.682 7.432-18.321 13.774-4.639 6.341-7.333 13.946-7.741 21.852a40.715 40.715 0 0 0 5.449 22.563c3.961 6.805 9.808 12.256 16.802 15.665a38.43 38.43 0 0 0 22.49 3.486c7.669-1.136 14.835-4.57 20.593-9.869 7.688-7.096 12.312-17.015 12.858-27.586.546-10.571-3.029-20.932-9.942-28.816v-.093Zm322.242 2.188a64.646 64.646 0 0 0 1.845-14.635l21.75-11.635-6.012-22.547-24.552 1.164a63.236 63.236 0 0 0-8.814-11.634l7.266-23.99-19.815-11.634-16.58 18.475a64.3 64.3 0 0 0-14.28-1.862l-11.387-22.221-22.046 6.12 1.161 25.106a62.24 62.24 0 0 0-11.387 9.005l-23.504-7.423-11.387 20.221 18.219 16.916a61.746 61.746 0 0 0-1.799 14.589l-21.795 11.634 6.012 22.524 24.597-1.187a58.925 58.925 0 0 0 8.769 11.634l-7.311 23.874 19.837 11.634 16.489-18.335a58.361 58.361 0 0 0 14.325 1.838l11.388 22.244 22.046-6.119-.979-21.454-.16-3.676a60.29 60.29 0 0 0 11.524-9.005l23.481 7.446 9.702-17.312 1.64-2.932-18.243-16.823Zm-52.086 13.682a29.003 29.003 0 0 1-17.208-.455c-5.566-1.889-10.456-5.425-14.052-10.158a30.636 30.636 0 0 1-6.146-16.428 30.78 30.78 0 0 1 3.838-17.144c2.913-5.201 7.272-9.4 12.525-12.066a29.062 29.062 0 0 1 16.977-2.907 29.317 29.317 0 0 1 15.691 7.233c4.414 3.945 7.581 9.141 9.1 14.929 2.025 7.712.983 15.931-2.9 22.861-3.882 6.931-10.29 12.012-17.825 14.135Zm304.25 25.968 5.011-30.947-30.655-12.588a83.565 83.565 0 0 0-4.396-19.313l22.069-25.106-17.855-25.596-30.428 13.194a80.346 80.346 0 0 0-16.443-10.425l-1.777-33.716-30.29-5.119-12.413 31.18a83.168 83.168 0 0 0-18.835 4.537l-24.642-22.547-24.939 18.243 12.937 31.063a84.497 84.497 0 0 0-9.224 14.636c-.342.721-.706 1.442-1.025 2.164l-32.978 1.861-5.034 30.901 4.965 2.047 25.691 10.587a83.367 83.367 0 0 0 4.395 19.22l-22.114 25.269 17.878 25.596 30.405-13.263a79.621 79.621 0 0 0 16.42 10.517l1.708 33.553 30.268 5.119 12.39-30.947a78.61 78.61 0 0 0 18.858-4.514l24.596 22.547 25.053-18.266-12.936-31.086a81.192 81.192 0 0 0 10.362-16.87l32.978-1.931Zm-84.95-1.396c-6.372 4.671-13.958 7.306-21.796 7.573a39.01 39.01 0 0 1-22.241-6.076c-6.662-4.228-11.947-10.379-15.187-17.676a41.302 41.302 0 0 1-3.015-23.318c1.274-7.907 4.815-15.249 10.174-21.099 5.359-5.851 12.296-9.946 19.934-11.768a38.86 38.86 0 0 1 22.973 1.531c7.341 2.821 13.698 7.802 18.268 14.314 6.121 8.735 8.596 19.597 6.879 30.197-1.717 10.599-7.485 20.067-16.035 26.322h.046Z"/>
  <path fill="#BA68C8" stroke="#263238" stroke-miterlimit="10" stroke-width="1.103" d="M393.141 338.272h-238.18c-16.49 0-29.858 13.658-29.858 30.505V705.68c0 16.847 13.368 30.505 29.858 30.505h238.18c16.49 0 29.858-13.658 29.858-30.505V368.777c0-16.847-13.368-30.505-29.858-30.505Z"/>
  <path fill="#000" d="M393.141 338.272h-238.18c-16.49 0-29.858 13.658-29.858 30.505V705.68c0 16.847 13.368 30.505 29.858 30.505h238.18c16.49 0 29.858-13.658 29.858-30.505V368.777c0-16.847-13.368-30.505-29.858-30.505Z" opacity=".2"/>
  <path fill="#fff" stroke="#263238" stroke-linecap="round" stroke-linejoin="round" stroke-width="1.103" d="M450.716 398.841v336.902a31.084 31.084 0 0 1-2.266 11.681 30.548 30.548 0 0 1-6.471 9.904 29.804 29.804 0 0 1-9.689 6.619 29.302 29.302 0 0 1-11.432 2.324h-238.18a29.311 29.311 0 0 1-11.425-2.331 29.805 29.805 0 0 1-9.681-6.62 30.54 30.54 0 0 1-6.465-9.901 31.077 31.077 0 0 1-2.264-11.676V398.841c0-8.087 3.142-15.842 8.737-21.562 5.594-5.72 13.183-8.937 21.098-8.943h238.18c7.919 0 15.514 3.214 21.113 8.934 5.599 5.721 8.745 13.48 8.745 21.571Z"/>
  <path fill="#BA68C8" stroke="#263238" stroke-miterlimit="10" stroke-width="1.103" d="M450.716 398.841v18.033H152.843v-18.033c0-8.087 3.142-15.842 8.737-21.562 5.594-5.72 13.183-8.937 21.098-8.943h238.18c7.919 0 15.514 3.214 21.113 8.934 5.599 5.721 8.745 13.48 8.745 21.571Z"/>
  <path fill="#BA68C8" d="M254.145 437.77h-73.289v12.565h73.289V437.77Zm0 112.594h-73.289v12.564h73.289v-12.564Zm0 102.101h-73.289v12.565h73.289v-12.565Z"/>
  <path fill="#263238" d="M388.996 468.878h-208.14v9.214h208.14v-9.214Zm-37.533 17.614H180.856v8.981h170.607v-8.981Zm22.342 17.335H180.856v8.982h192.949v-8.982Zm0 17.31H180.856v8.982h192.949v-8.982Zm15.191 49.843h-208.14v9.215h208.14v-9.215Zm-37.533 17.613H180.856v8.982h170.607v-8.982Zm22.342 17.335H180.856v8.982h192.949v-8.982Zm15.191 77.158h-208.14v9.215h208.14v-9.215Zm-37.533 17.639H180.856v8.981h170.607v-8.981Zm22.342 17.333H180.856v8.982h192.949v-8.982Z"/>
  <path fill="#fff" stroke="#222221" stroke-miterlimit="10" stroke-width="1.103" d="M786.442 134.721v136.166c0 4.778-.922 9.51-2.712 13.923a36.438 36.438 0 0 1-7.723 11.802 35.551 35.551 0 0 1-11.556 7.882 34.93 34.93 0 0 1-13.629 2.762H443.861a34.935 34.935 0 0 1-13.63-2.762 35.562 35.562 0 0 1-11.556-7.882 36.419 36.419 0 0 1-7.722-11.802 37.037 37.037 0 0 1-2.712-13.923V134.721c.006-9.65 3.761-18.903 10.439-25.726 6.679-6.823 15.736-10.66 25.181-10.666h306.961c9.447 0 18.507 3.834 25.187 10.659 6.68 6.825 10.433 16.081 10.433 25.733Z"/>
  <path fill="#BA68C8" stroke="#263238" stroke-miterlimit="10" stroke-width="1.103" d="M786.442 134.721v3.118H408.241v-3.118c.006-9.65 3.761-18.903 10.439-25.726 6.679-6.823 15.736-10.66 25.181-10.666h306.961c9.447 0 18.507 3.834 25.187 10.659 6.68 6.825 10.433 16.081 10.433 25.733Z"/>
  <path fill="#263238" d="M463.812 124.598a5.43 5.43 0 0 1-2.799 1.532 5.357 5.357 0 0 1-3.16-.315 5.497 5.497 0 0 1-2.455-2.057 5.674 5.674 0 0 1-.922-3.104c0-1.105.321-2.185.922-3.104a5.504 5.504 0 0 1 2.455-2.057c1-.422 2.099-.532 3.16-.315a5.437 5.437 0 0 1 2.799 1.532 5.674 5.674 0 0 1 1.587 3.944 5.674 5.674 0 0 1-1.587 3.944Zm25.325 0a5.423 5.423 0 0 1-2.798 1.532 5.357 5.357 0 0 1-3.16-.315 5.492 5.492 0 0 1-2.455-2.057 5.674 5.674 0 0 1-.922-3.104c0-1.105.321-2.185.922-3.104a5.498 5.498 0 0 1 2.455-2.057c1-.422 2.099-.532 3.16-.315a5.43 5.43 0 0 1 2.798 1.532 5.67 5.67 0 0 1 1.587 3.944 5.67 5.67 0 0 1-1.587 3.944Zm25.326 0a5.431 5.431 0 0 1-2.798 1.532 5.357 5.357 0 0 1-3.16-.315 5.492 5.492 0 0 1-2.455-2.057 5.666 5.666 0 0 1-.923-3.104c0-1.105.321-2.185.923-3.104a5.498 5.498 0 0 1 2.455-2.057 5.357 5.357 0 0 1 3.16-.315c1.06.217 2.034.75 2.798 1.532a5.67 5.67 0 0 1 1.587 3.944 5.67 5.67 0 0 1-1.587 3.944Z"/>
  <path stroke="#263238" stroke-dasharray="4.41 4.41" stroke-linecap="round" stroke-linejoin="round" stroke-width="1.103" d="M555.982 162.875H432.359V272.05h123.623V162.875Z"/>
  <path fill="#263238" d="M717.342 162.875H575.067v7.679h142.275v-7.679Zm-33.137 15.892H575.067v7.656h109.138v-7.656Zm53.362 15.823h-162.5v7.748h162.5v-7.748Zm-24.119 15.428H575.067v7.748h138.381v-7.748Z"/>
  <path fill="#fff" stroke="#263238" stroke-linecap="round" stroke-linejoin="round" stroke-width="1.103" d="M796.781 472.67h-69.577c-8.214 0-14.872 6.803-14.872 15.194v41.721c0 8.391 6.658 15.194 14.872 15.194h69.577c8.214 0 14.872-6.803 14.872-15.194v-41.721c0-8.391-6.658-15.194-14.872-15.194Z"/>
  <path stroke="#263238" stroke-linecap="round" stroke-linejoin="round" stroke-width="1.103" d="m744.376 494.356-19.108 12.239 17.742 16.055m36.167 1.165 17.172-14.939-19.814-13.263m-22.867 37.414 14.098-45.187"/>
  <path fill="#BA68C8" d="M606.724 926.265s-66.047 19.336-75.271 22.687c-8.381 3.025-31.11 11.169-48.169 8.632a35.52 35.52 0 0 1-4.874-1.07c-17.286-5.259-25.052-10.168-27.33-21.267-2.277-11.099 6.332-19.29 14.622-24.525 8.29-5.236 53.248-10.704 53.248-10.704l10.863 3.258 76.911 22.989Z"/>
  <path fill="#fff" d="M483.284 957.584a35.52 35.52 0 0 1-4.874-1.07c-17.286-5.259-25.052-10.168-27.33-21.267-2.277-11.099 6.332-19.29 14.622-24.525 8.29-5.236 53.248-10.704 53.248-10.704l10.863 3.258c-9.838 4.654-46.46 7.19-54.454 11.89s-11.843 13.542-7.129 25.595c2.528 6.283 9.269 12.449 15.054 16.823Z"/>
  <path stroke="#263238" stroke-linecap="round" stroke-linejoin="round" stroke-width="1.103" d="M596.795 929.011s-49.604 13.123-69.282 21.523c-19.677 8.4-57.188 12.076-70.602-5.236-13.415-17.311-1.549-32.25 11.82-35.577 13.369-3.327 40.403-8.563 55.161-6.445"/>
  <path stroke="#263238" stroke-linecap="round" stroke-linejoin="round" stroke-width="1.103" d="M484.264 956.677s-25.235-14.147-16.854-33.972c6.195-14.613 39.856-11.448 56.528-19.429"/>
  <path fill="#BA68C8" d="M807.896 960.723c-.684 6.981-3.075 13.519-9.908 17.638-4.555 2.745-11.023 4.374-20.292 4.281-23.162-.302-66.708-17.218-66.708-17.218l-40.767-23.036 21.203-34.274 5.808-9.308 14.986 3.444s12.412 7.19 24.893 12.914c12.481 5.724 42.794 6.98 53.476 15.753 10.681 8.772 18.47 18.312 17.309 29.806Z"/>
  <path fill="#fff" d="M807.895 960.723c-.683 6.981-3.074 13.519-9.907 17.638a31.787 31.787 0 0 0-1.139-20.802c-4.555-10.448-19.381-19.662-38.876-21.198-19.496-1.535-34.413-10.843-42.225-15.008-6.104-3.234-18.972-10.308-24.324-13.239l5.808-9.308 14.986 3.444s12.412 7.19 24.893 12.914c12.48 5.724 42.794 6.98 53.475 15.753 10.682 8.772 18.471 18.312 17.309 29.806Z"/>
  <path stroke="#263238" stroke-linecap="round" stroke-linejoin="round" stroke-width="1.103" d="M679.262 948.858c29.345 17.428 61.778 28.744 95.427 33.297 7.425.908 16.057 1.047 21.022-4.653a15.993 15.993 0 0 0 2.891-5.591c.587-2.042.765-4.185.525-6.299-.888-10.704-9.702-19.174-19.359-23.432-9.656-4.258-20.292-5.235-30.564-7.585a119.949 119.949 0 0 1-29.379-10.983c-7.38-3.932-14.508-8.702-22.639-10.471-8.13-1.768-17.81.373-22.16 7.632"/>
  <path stroke="#263238" stroke-linecap="round" stroke-linejoin="round" stroke-width="1.103" d="M792.978 980.409a27.268 27.268 0 0 0 9.742-8.037 28.031 28.031 0 0 0 5.176-11.648c1.48-10.076-4.145-20.221-12.048-26.41-7.903-6.189-17.81-9.121-27.581-11.192-9.77-2.071-19.768-3.467-29.129-7.26-14.28-5.724-28.378-16.986-43.272-12.96"/>
  <path fill="#BA68C8" d="m725.268 588.384-68.985-26.805-.866-.349s.251-1.862.456-4.654c.432-5.631.66-14.799-1.936-17.893-3.849-4.654-14.736-.745-25.371-5.724-10.636-4.98-30.291 3.932-30.291 3.932s-14.212-2.676-20.498 7.795c-3.188 8.446-2.095 20.941-2.095 20.941l-1.298.466c-8.222 3.141-52.952 20.336-62.403 27.247-10.454 7.562-22.024 85.209-25.736 108.012-3.712 22.803-10.317 43.349-6.969 51.19 3.348 7.842 51.403 45.653 79.052 55.402 27.648 9.75 125.694 6.981 125.694 6.981s1.595-.442 4.442-1.373c16.58-5.445 75.407-27.922 106.632-80.695.045.093-30.2-101.194-69.828-144.473Zm-186.39 130.605c-5.079 3.677-2.278 17.917-2.278 17.917l-8.631-7.772 21.681-54.471 9.247 41.883s-14.94-1.21-20.019 2.443Zm173.454 34.6c-2.392 1.257 6.832-24.92 2.459-30.854-4.372-5.933-17.559-5.375-17.559-5.375l1.116-7.143 7.812-40.952 2.596-3.141s26.829 46.978 31.634 63.545c0 .047-29.243 23.92-28.058 23.92Z"/>
  <path fill="#fff" d="m595.018 418.502-35.62 38.626s-4.897 4.444-2.961 15.636c1.936 11.192 6.491 20.942 9.93 21.593 2.723.487 5.481.736 8.245.745 0 0 7.629 16.893 13.05 23.524 0 0 1.867 26.084.865 33.32 0 0 12.8 11.425 24.848 12.868 12.048 1.442 30.655-17.405 30.655-17.405l4.555-23.082s10.932-16.939 11.66-21.454c.729-4.514 5.74-3.35 8.199-5.584 2.46-2.234 8.131-12.169 9.11-21.57.98-9.4 1.003-20.197-9.679-17.032-9.269-2.536-3.462-22.547-3.462-22.547l-16.284-14.659-53.111-2.979Z"/>
  <path fill="#fff" d="M656.283 561.579a41.928 41.928 0 0 1-1.845 4.212c-5.876 11.308-31.475 32.878-31.475 32.878l-7.744-24.316-4.236 24.316c-8.54-3.816-34.595-26.875-34.595-26.875s-.888-2.164-1.959-5.538l1.299-.465s-1.094-12.589 2.095-20.942c6.24-10.471 20.497-7.795 20.497-7.795s19.655-8.911 30.291-3.932c10.636 4.979 21.522 1.117 25.371 5.724s1.481 22.477 1.481 22.477l.82.256Z" opacity=".5"/>
  <path fill="#000" d="m725.268 588.385-68.985-26.805-.866-.349s.251-1.861.456-4.654l-1.435 9.145-10.203 14.147a279.604 279.604 0 0 1 31.885 14.333c4.945 2.707 8.979 6.869 11.578 11.948a29.107 29.107 0 0 1 2.998 16.533l-12.709 111.106-5.215 63.081 15.737 16.683c16.58-5.445 75.408-27.922 106.632-80.694 0 .093-30.245-101.195-69.873-144.474Zm-12.936 165.206c-2.392 1.256 6.832-24.921 2.459-30.854-4.372-5.934-17.559-5.375-17.559-5.375l1.116-7.144 7.812-40.952 2.596-3.141s26.829 46.979 31.634 63.546c0 .046-29.243 23.92-28.058 23.92Zm-148.857-30.855-10.727-36.624s-19.245-67.036-32.432-83.557l3.462 47.142s-11.387 56.31-21.796 73.039c-10.408 16.73-12.731 20.942 0 20.942 12.732 0 43.728 25.223 43.728 25.223l-2.391-20.942 20.156-25.223Zm-27.034 14.171-8.632-7.772 21.682-54.471 9.247 41.883s-14.85-1.14-19.928 2.513c-5.079 3.653-2.369 17.847-2.369 17.847Z" opacity=".2"/>
  <path stroke="#263238" stroke-linecap="round" stroke-linejoin="round" stroke-width="1.103" d="M587.662 518.626s1.958 19.755 0 28.783m58.349-2.652a86.785 86.785 0 0 1 2.141-18.871"/>
  <path stroke="#263238" stroke-linecap="round" stroke-linejoin="round" stroke-width="1.103" d="M651.181 433.232s11.706 15.008 11.092 26.363c-.615 11.355-1.481 24.804-1.185 37.974.296 13.17-20.702 40.766-31.497 43.209-10.796 2.443-20.088 3.072-26.989-3.979-6.901-7.05-13.801-16.846-22.775-29.411-8.973-12.565-6.832-40.138-6.832-40.138"/>
  <path stroke="#263238" stroke-linecap="round" stroke-linejoin="round" stroke-width="1.103" d="M622.986 477.743a63.616 63.616 0 0 0-.911 12.495 14.283 14.283 0 0 0 3.006 9.773c1.298 1.349 3.166 2.443 3.416 4.304a4.729 4.729 0 0 1-.659 2.376 4.602 4.602 0 0 1-1.755 1.696 35.219 35.219 0 0 0-4.213 2.56m-17.4 1.444s1.343 8.912 13.027 10.774"/>
  <path fill="#263238" d="M605.677 484.539c0 2.583-1.093 4.654-2.437 4.654-1.344 0-2.437-2.071-2.437-4.654 0-2.583 1.093-4.654 2.437-4.654 1.344 0 2.437 2.094 2.437 4.654Zm34.868 1.116c0 2.583-1.093 4.653-2.437 4.653-1.344 0-2.437-2.094-2.437-4.653 0-2.56 1.093-4.654 2.437-4.654 1.344 0 2.437 2.071 2.437 4.654Z"/>
  <path stroke="#263238" stroke-linecap="round" stroke-linejoin="round" stroke-width="2.206" d="M633.508 474.37s11.387-11.634 20.93 1.349m-44.912-1.117s-7.197-8.237-18.539 0"/>
  <path fill="#263238" d="M588.527 529.609s6.946 19.545 22.456 25.106 36.098-23.268 36.098-23.268l-1.07-3.746s-13.505 17.916-28.514 14.868c-15.009-3.048-29.835-23.85-29.835-23.85l.865 10.89Z"/>
  <path stroke="#263238" stroke-linecap="round" stroke-linejoin="round" stroke-width="1.103" d="M574.612 494.358s-9.247 3.327-11.707-4.026c-2.459-7.353-10.886-26.735-3.507-33.204 7.379-6.468 13.301 8.54 13.301 8.54m88.366 32.691s8.586 1.769 11.046-5.584c2.46-7.353 10.887-26.735 3.507-33.204-7.379-6.469-13.3 8.54-13.3 8.54"/>
  <path fill="#263238" d="M572.699 484.537c3.212-.517 6.111-2.265 8.108-4.886a20.676 20.676 0 0 0 2.277-7.423 89.24 89.24 0 0 0 1.275-14.985c-.1-1.962.076-3.929.524-5.84a15.423 15.423 0 0 1 3.098-5.189c3.211-3.863 7.105-7.12 10.18-11.122a18.719 18.719 0 0 0 3.685-6.501 19.005 19.005 0 0 0 .87-7.46 62.05 62.05 0 0 0 24.12 12.557 61.238 61.238 0 0 0 27.055.962c16.284-3.258 31.885-17.847 29.995-36.183a14.966 14.966 0 0 0-3.69-8.244 14.44 14.44 0 0 0-7.698-4.507c-8.039-2.047-15.259 2.327-22.547 5.143-13.278 5.119-26.282-3.677-39.696-5.143-11.388-1.28-25.577.186-31.544 11.844 0 0-20.497 2.466-29.607 19.778-9.11 17.312 8.13 41.255 8.13 41.255s6.833-8.563 15.783 8.749l-.318 17.195Z"/>
  <path fill="#263238" d="M652.593 428.81s-5.329 28.387 8.586 42.139c0 0 3.052-8.54 6.127-10.634a33.516 33.516 0 0 0 2.729-16.071 33.357 33.357 0 0 0-5.166-15.434c-10.295-16.521-12.276 0-12.276 0Z"/>
  <path stroke="#fff" stroke-linecap="round" stroke-linejoin="round" stroke-width="1.103" d="M677.964 396.513a26.86 26.86 0 0 1-6.056 10.342 26.129 26.129 0 0 1-9.886 6.574c-19.313 8.05-38.057-.861-57.416-2.606-15.783-1.443-33.206 13.123-34.322 29.69m-11.911-4.373a34.968 34.968 0 0 1 5.92-18.261c3.629-5.389 8.686-9.612 14.578-12.174" opacity=".2"/>
  <path stroke="#263238" stroke-linecap="round" stroke-linejoin="round" stroke-width="1.103" d="M583.198 544.757c8.493 9.043 18.74 16.175 30.085 20.941 0 0 23.117-6.864 34.869-23.268m-41.33-38.945c10.266-4.811 14.772-17.214 10.062-27.703-4.709-10.49-16.849-15.093-27.116-10.281-10.267 4.811-14.772 17.214-10.063 27.703 4.709 10.49 16.85 15.093 27.117 10.281Zm39.63 1.839c11.212-1.407 19.184-11.832 17.808-23.286-1.377-11.454-11.581-19.599-22.792-18.193-11.212 1.407-19.184 11.832-17.807 23.286 1.376 11.454 11.58 19.599 22.791 18.193Z"/>
  <path stroke="#263238" stroke-linecap="round" stroke-linejoin="round" stroke-width="1.103" d="M587.661 536.963a15.796 15.796 0 0 0-5.707 2.871 16.205 16.205 0 0 0-4.154 4.923c-3.621 6.516-1.435 27.015-1.435 27.015s18.698 18.894 34.618 26.875l4.692-26.968 7.288 26.968s24.642-17.8 31.475-32.855c0 0 2.277-17.568 0-23.268a8.066 8.066 0 0 0-2.821-3.952 7.793 7.793 0 0 0-4.536-1.563m-88.708 180.376s-7.311-50.027-17.035-70.433m-21.022-44.397a203.49 203.49 0 0 1 15.123 25.852m176.893 11.494a146.691 146.691 0 0 1 8.039-24.409m-23.139 101.894s5.261-34.298 11.547-62.546m-2.619 14.379c5.085-6.889 12.235-11.89 20.36-14.241"/>
  <path stroke="#263238" stroke-linecap="round" stroke-linejoin="round" stroke-width="1.103" d="M655.44 561.23s42.43 17.335 69.828 27.178c0 0 33.707 32.366 69.851 144.543 0 0-33.115 56.914-96.11 75.157"/>
  <path stroke="#263238" stroke-linecap="round" stroke-linejoin="round" stroke-width="1.103" d="m709.94 755.615 30.45-25.898s16.102-12.495 32.842-3.956m-64.453-59.637s25.166 37.997 31.612 63.592m-203.609 8.633-8.905-8.632s-13.209-2.327-28.195 7.888m28.195-7.888s11.069-37.229 21.978-56.286"/>
  <path stroke="#263238" stroke-linecap="round" stroke-linejoin="round" stroke-width="1.103" d="M575.728 565.791s-61.06 23.408-67.05 30.249c-5.99 6.841-28.742 137.726-29.357 152.711-.524 13.402 47.031 43.488 70.603 56.169"/>
  <path fill="#263238" d="M621.392 610.023a4.18 4.18 0 0 1-.68 2.288 4.053 4.053 0 0 1-1.809 1.517 3.949 3.949 0 0 1-2.329.234 4 4 0 0 1-2.064-1.127 4.142 4.142 0 0 1-1.103-2.108 4.2 4.2 0 0 1 .229-2.38 4.094 4.094 0 0 1 1.485-1.848 3.966 3.966 0 0 1 2.239-.694 3.937 3.937 0 0 1 1.547.307c.49.206.936.509 1.311.892.375.383.671.838.873 1.339.201.501.304 1.038.301 1.58Zm70.647 219.236H553.112c-.864 0-1.692-.35-2.303-.974a3.365 3.365 0 0 1-.954-2.353c0-.882.343-1.729.954-2.353a3.222 3.222 0 0 1 2.303-.974h138.927c.864 0 1.692.35 2.303.974s.954 1.471.954 2.353c0 .882-.343 1.729-.954 2.353a3.222 3.222 0 0 1-2.303.974Z"/>
  <path fill="#fff" stroke="#263238" stroke-linecap="round" stroke-linejoin="round" stroke-width="1.103" d="m696.913 818.136 18.607-89.351a9.69 9.69 0 0 0-.053-4.196 9.58 9.58 0 0 0-1.819-3.763 9.33 9.33 0 0 0-3.23-2.594 9.11 9.11 0 0 0-4.008-.918H544.025a9.127 9.127 0 0 0-3.975.913 9.324 9.324 0 0 0-3.21 2.562 9.577 9.577 0 0 0-1.829 3.719 9.687 9.687 0 0 0-.096 4.161l16.694 86.372a9.536 9.536 0 0 0 3.134 5.428 9.176 9.176 0 0 0 5.771 2.227l127.061 2.978a9.205 9.205 0 0 0 5.997-2.052 9.571 9.571 0 0 0 3.341-5.486Z"/>
  <path fill="#263238" d="M637.653 768.878a13.454 13.454 0 0 1-2.195 7.349 13.025 13.025 0 0 1-5.821 4.866 12.702 12.702 0 0 1-7.485.744 12.877 12.877 0 0 1-6.63-3.629 13.33 13.33 0 0 1-3.54-6.779 13.51 13.51 0 0 1 .741-7.646 13.185 13.185 0 0 1 4.773-5.938 12.719 12.719 0 0 1 12.162-1.22 12.947 12.947 0 0 1 4.207 2.876 13.26 13.26 0 0 1 2.808 4.303c.65 1.609.983 3.333.98 5.074Z"/>
  <path stroke="#263238" stroke-linecap="round" stroke-linejoin="round" stroke-width="1.103" d="M663.138 725.856h19.29m-111.415 0h73.222"/>
  <path fill="#263238" d="m697.232 913.001-14.804 39.696s-37.761-9.727-86.112-19.848c-50.583-10.587-103.398-24.293-130.796-73.412-3.326-5.98-5.557-13.054-3.986-19.755 3.94-16.963 25.553-21.57 39.788-23.268a254.005 254.005 0 0 1 26.943-1.536c4.555 0 19.7-2.536 23.367.233a106.855 106.855 0 0 0 17.559 10.633c8.085 3.514 126.105-3.141 126.105-3.141a43.968 43.968 0 0 0 3.712-14.496c18.562-9.633 61.493-17.777 79.713-14.17 28.537 5.654 45.185 22.663 42.019 40.486-3.165 17.824-66.206 65.617-123.508 78.578Z"/>
  <path stroke="#fff" stroke-linecap="round" stroke-linejoin="round" stroke-width="1.103" d="M697.232 913.002s-35.916-9.726-65.25-29.97c-29.334-20.243-52.246-43.744-93.127-38.881"/>
  <path stroke="#fff" stroke-linecap="round" stroke-linejoin="round" stroke-width="1.103" d="M625.263 878.262c18.539-5.445 32.136-17.707 47.008-29.458a317.328 317.328 0 0 1 50.31-33.785"/>
  <path stroke="#263238" stroke-linecap="round" stroke-linejoin="round" stroke-width="1.103" d="M618.727 487.843h5.443"/>
</svg>
